<?xml version="1.0" encoding="UTF-8"?><svg id="Camada_1_cópia_3" xmlns="http://www.w3.org/2000/svg" xmlns:xlink="http://www.w3.org/1999/xlink" viewBox="0 0 425.64 214.98"><defs><style>.cls-1{fill:#fb5e0a;}.cls-2{fill:#fd7a06;}.cls-3{fill:#f93d0e;}.cls-4{fill:#fc6808;}.cls-5{fill:#f9400e;}.cls-6{fill:#fb5a0a;}.cls-7{fill:#fa4f0c;}.cls-8{fill:#ffa200;}.cls-9{fill:#fb6509;}.cls-10{fill:#fc7007;}.cls-11{fill:#6a44f8;}.cls-12{fill:#fb5d0a;}.cls-13{fill:#fb560b;}.cls-14{fill:#fc6b08;}.cls-15{fill:#6e4df7;}.cls-16{fill:#fb6209;}.cls-17{fill:#8888ed;}.cls-18{fill:#847fef;}.cls-19{fill:#765ef4;}.cls-20{fill:#fe8b04;}.cls-21{fill:#ff9d01;}.cls-22{fill:#7761f4;}.cls-23{fill:#7863f3;}.cls-24{fill:#f93010;}.cls-25{fill:#f82012;}.cls-26{fill:#827aef;}.cls-27{fill:#f71813;}.cls-28{fill:#f82b11;}.cls-29{fill:#f81f12;}.cls-30{fill:#ff9f01;}.cls-31{fill:#fa4d0c;}.cls-32{fill:#755bf5;}.cls-33{fill:#fb530b;}.cls-34{fill:#8684ee;}.cls-35{fill:#ff9c01;}.cls-36{fill:#fb540b;}.cls-37{fill:#fb5f0a;}.cls-38{fill:#7760f4;}.cls-39{fill:#f82711;}.cls-40{fill:#fc6d08;}.cls-41{fill:#6f4ff7;}.cls-42{fill:#755cf4;}.cls-43{fill:#fa470d;}.cls-44{fill:#fd7f05;}.cls-45{fill:#f9350f;}.cls-46{fill:#f93310;}.cls-47{fill:#fc7107;}.cls-48{fill:#ffa400;}.cls-49{fill:#8179f0;}.cls-50{fill:#7f73f1;}.cls-51{fill:#8785ee;}.cls-52{fill:#fe9502;}.cls-53{fill:#765ff4;}.cls-54{fill:#fe8c03;}.cls-55{fill:#7e71f1;}.cls-56{fill:#f81e13;}.cls-57{fill:#fb6409;}.cls-58{fill:#fa480d;}.cls-59{fill:#6c48f8;}.cls-60{fill:#6d4af7;}.cls-61{fill:#fc6709;}.cls-62{fill:#f71c13;}.cls-63{fill:#f71913;}.cls-64{fill:#fb570b;}.cls-65{fill:#f82412;}.cls-66{fill:#ffa001;}.cls-67{fill:#7154f6;}.cls-68{fill:#fd7e05;}.cls-69{fill:#7357f5;}.cls-70{fill:#7256f5;}.cls-71{fill:#fc7607;}.cls-72{fill:none;}.cls-73{fill:#8178f0;}.cls-74{fill:#6f4ef7;}.cls-75{fill:#fb580b;}.cls-76{fill:#7966f3;}.cls-77{fill:#fe8a04;}.cls-78{fill:#fc7307;}.cls-79{fill:#fc6908;}.cls-80{fill:#6d4bf7;}.cls-81{fill:#fc7507;}.cls-82{fill:#fe8e03;}.cls-83{fill:#8480ee;}.cls-84{fill:#fa420e;}.cls-85{fill:#f81d13;}.cls-86{fill:#7050f6;}.cls-87{fill:#6e4cf7;}.cls-88{fill:#7862f3;}.cls-89{fill:#fe9003;}.cls-90{fill:#7f74f0;}.cls-91{fill:#8582ee;}.cls-92{fill:#7459f5;}.cls-93{fill:#fd8205;}.cls-94{fill:#fd8105;}.cls-95{fill:#8683ee;}.cls-96{fill:#7d70f1;}.cls-97{fill:#fd8405;}.cls-98{clip-path:url(#clippath-1);}.cls-99{fill:#fd8305;}.cls-100{fill:#6942f9;}.cls-101{fill:#fa510c;}.cls-102{fill:#f82c11;}.cls-103{fill:orange;}.cls-104{fill:#7967f3;}.cls-105{fill:#f93c0e;}.cls-106{fill:#ffa101;}.cls-107{fill:#fc6a08;}.cls-108{fill:#7a68f2;}.cls-109{fill:#7255f6;}.cls-110{fill:#f93b0f;}.cls-111{fill:#f71a13;}.cls-112{fill:#7e72f1;}.cls-113{fill:#f71b13;}.cls-114{fill:#7c6df2;}.cls-115{fill:#8075f0;}.cls-116{fill:#ff9e01;}.cls-117{fill:#fc6c08;}.cls-118{fill:#f93e0e;}.cls-119{fill:#7358f5;}.cls-120{fill:#755df4;}.cls-121{fill:#827bef;}.cls-122{fill:#8887ed;}.cls-123{fill:#fe9402;}.cls-124{fill:#f9370f;}.cls-125{fill:#837cef;}.cls-126{fill:#fe9902;}.cls-127{fill:#fd7b06;}.cls-128{fill:#7b6af2;}.cls-129{fill:#fc6609;}.cls-130{fill:#f82312;}.cls-131{fill:#f82612;}.cls-132{fill:#f71514;}.cls-133{fill:#f82d11;}.cls-134{fill:#fe8f03;}.cls-135{fill:#fa4b0c;}.cls-136{fill:#fa440d;}.cls-137{fill:#f82a11;}.cls-138{fill:#7051f6;}.cls-139{fill:#fc7706;}.cls-140{fill:#fb6109;}.cls-141{fill:#fa520b;}.cls-142{fill:#6b45f8;}.cls-143{fill:#fb550b;}.cls-144{fill:#6c47f8;}.cls-145{fill:#f82112;}.cls-146{fill:#f82212;}.cls-147{fill:#f9390f;}.cls-148{fill:#7153f6;}.cls-149{fill:#ffa300;}.cls-150{fill:#fc6f08;}.cls-151{fill:#fa460d;}.cls-152{fill:#6d49f8;}.cls-153{fill:#fd7c06;}.cls-154{fill:#fc7407;}.cls-155{fill:#8076f0;}.cls-156{fill:#f93a0f;}.cls-157{fill:#fc6e08;}.cls-158{fill:#fe9303;}.cls-159{fill:#fe9a02;}.cls-160{fill:#fe9602;}.cls-161{fill:#fe9b01;}.cls-162{fill:#f71414;}.cls-163{fill:#f92f10;}.cls-164{fill:#fb6309;}.cls-165{fill:#f71614;}.cls-166{fill:#f82811;}.cls-167{fill:#fe9203;}.cls-168{fill:#8786ed;}.cls-169{fill:#7a69f2;}.cls-170{fill:#847eef;}.cls-171{fill:#f93210;}.cls-172{fill:#fb590a;}.cls-173{fill:#837def;}.cls-174{fill:#f93110;}.cls-175{fill:#fd8704;}.cls-176{fill:#7c6ef1;}.cls-177{fill:#f82512;}.cls-178{fill:#6941f9;}.cls-179{fill:#fa500c;}.cls-180{fill:#fd7906;}.cls-181{fill:#f93f0e;}.cls-182{fill:#fd8804;}.cls-183{fill:#fa430d;}.cls-184{fill:#fc7207;}.cls-185{fill:#745af5;}.cls-186{fill:#7965f3;}.cls-187{fill:#fa410e;}.cls-188{fill:#fd7806;}.cls-189{fill:#f71714;}.cls-190{fill:#f93410;}.cls-191{fill:#fd8904;}.cls-192{fill:#f82911;}.cls-193{fill:#fd8604;}.cls-194{fill:#8077f0;}.cls-195{fill:#fb5b0a;}.cls-196{fill:#fd8504;}.cls-197{fill:#f9360f;}.cls-198{fill:#6b46f8;}.cls-199{fill:#f82e10;}.cls-200{fill:#fe9103;}.cls-201{fill:#fa490d;}.cls-202{fill:#fd8005;}.cls-203{fill:#fe9702;}.cls-204{fill:#8581ee;}.cls-205{fill:#fb600a;}.cls-206{fill:#fe9802;}.cls-207{fill:#7c6cf2;}.cls-208{fill:#f9380f;}.cls-209{fill:#fd7d06;}.cls-210{fill:#7152f6;}.cls-211{clip-path:url(#clippath);}.cls-212{fill:#7b6bf2;}.cls-213{fill:#7d6ff1;}.cls-214{fill:#fa4c0c;}.cls-215{fill:#fa450d;}.cls-216{fill:#fa4e0c;}.cls-217{fill:#6a43f9;}.cls-218{fill:#fa4a0d;}.cls-219{fill:#fe8d03;}</style><clipPath id="clippath"><path class="cls-72" d="M218.13,23.75h-90.68c-1.59,0-3.54,1.13-4.33,2.5l-45.34,78.54c-.79,1.37-.79,3.62,0,5l45.33,78.53c.79,1.38,2.74,2.5,4.33,2.5h90.68c1.59,0,3.54-1.12,4.33-2.5l45.35-78.53c.79-1.38.79-3.63,0-5l-45.35-78.54c-.79-1.37-2.74-2.5-4.33-2.5ZM259.22,109.79l-36.44,63.11c-2.37,4.1-6.26,4.11-8.65.02l-36.73-62.95c-.81-1.39-.81-3.65,0-5.04l36.82-63.13c2.39-4.09,6.28-4.08,8.65.02l36.35,62.96c.79,1.37.79,3.62,0,5ZM131.74,31.18h71.37c4.79,0,6.73,3.38,4.32,7.52l-36.49,62.56c-.8,1.36-2.74,2.48-4.32,2.48h-71c-4.76,0-6.71-3.37-4.33-7.5l36.12-62.56c.79-1.38,2.74-2.5,4.33-2.5ZM127.41,180.89l-35.92-62.21c-2.38-4.13-.43-7.5,4.33-7.5h70.8c1.58,0,3.52,1.12,4.32,2.48l36.29,62.21c2.41,4.14.47,7.52-4.32,7.52h-71.18c-1.59,0-3.54-1.12-4.33-2.5Z"/></clipPath><clipPath id="clippath-1"><path class="cls-72" d="M309.42,24.16h-90.68c-1.59,0-3.54,1.13-4.33,2.5l-45.34,78.54c-.79,1.37-.79,3.62,0,5l45.33,78.53c.79,1.38,2.74,2.5,4.33,2.5h90.68c1.59,0,3.54-1.12,4.33-2.5l45.35-78.53c.79-1.38.79-3.63,0-5l-45.35-78.54c-.79-1.37-2.74-2.5-4.33-2.5ZM350.51,110.2l-36.44,63.11c-2.37,4.1-6.26,4.11-8.65.02l-36.73-62.95c-.81-1.39-.81-3.65,0-5.04l36.82-63.13c2.39-4.09,6.28-4.08,8.65.02l36.35,62.96c.79,1.37.79,3.62,0,5ZM223.03,31.59h71.37c4.79,0,6.73,3.38,4.32,7.52l-36.49,62.56c-.8,1.36-2.74,2.48-4.32,2.48h-71c-4.76,0-6.71-3.37-4.33-7.5l36.12-62.56c.79-1.38,2.74-2.5,4.33-2.5ZM218.7,181.29l-35.92-62.21c-2.38-4.13-.43-7.5,4.33-7.5h70.8c1.58,0,3.52,1.12,4.32,2.48l36.29,62.21c2.41,4.14.47,7.52-4.32,7.52h-71.18c-1.59,0-3.54-1.12-4.33-2.5Z"/></clipPath></defs><g class="cls-211"><polygon class="cls-138" points="90.42 111.17 89.11 112.32 89.11 111.17 90.42 111.17"/><polygon class="cls-210" points="92.95 111.17 89.11 114.54 89.11 112.32 90.42 111.17 92.95 111.17"/><polygon class="cls-148" points="95.48 111.17 89.11 116.76 89.11 114.54 92.95 111.17 95.48 111.17"/><polygon class="cls-67" points="98.01 111.17 89.11 118.98 89.11 116.76 95.48 111.17 98.01 111.17"/><polygon class="cls-109" points="100.54 111.17 89.11 121.19 89.11 118.98 98.01 111.17 100.54 111.17"/><polygon class="cls-70" points="103.06 111.17 89.11 123.41 89.11 121.19 100.54 111.17 103.06 111.17"/><polygon class="cls-69" points="105.59 111.17 89.11 125.63 89.11 123.41 103.06 111.17 105.59 111.17"/><polygon class="cls-119" points="108.12 111.17 89.11 127.85 89.11 125.63 105.59 111.17 108.12 111.17"/><polygon class="cls-92" points="110.65 111.17 89.11 130.06 89.11 127.85 108.12 111.17 110.65 111.17"/><polygon class="cls-185" points="113.18 111.17 89.11 132.28 89.11 130.06 110.65 111.17 113.18 111.17"/><polygon class="cls-32" points="115.71 111.17 89.11 134.5 89.11 132.28 113.18 111.17 115.71 111.17"/><polygon class="cls-42" points="118.23 111.17 89.11 136.71 89.11 134.5 115.71 111.17 118.23 111.17"/><polygon class="cls-120" points="120.76 111.17 89.11 138.93 89.11 136.71 118.23 111.17 120.76 111.17"/><polygon class="cls-19" points="123.29 111.17 89.33 140.96 89.11 140.71 89.11 138.93 120.76 111.17 123.29 111.17"/><polygon class="cls-53" points="125.82 111.17 90.43 142.21 89.33 140.96 123.29 111.17 125.82 111.17"/><polygon class="cls-38" points="128.35 111.17 91.52 143.46 90.43 142.21 125.82 111.17 128.35 111.17"/><polygon class="cls-22" points="130.88 111.17 92.62 144.72 91.52 143.46 128.35 111.17 130.88 111.17"/><polygon class="cls-88" points="133.4 111.17 93.72 145.97 92.62 144.72 130.88 111.17 133.4 111.17"/><polygon class="cls-23" points="135.93 111.17 94.82 147.22 93.72 145.97 133.4 111.17 135.93 111.17"/><polygon class="cls-186" points="138.46 111.17 95.92 148.48 94.82 147.22 135.93 111.17 138.46 111.17"/><polygon class="cls-76" points="140.99 111.17 97.02 149.73 95.92 148.48 138.46 111.17 140.99 111.17"/><polygon class="cls-104" points="143.52 111.17 98.12 150.98 97.02 149.73 140.99 111.17 143.52 111.17"/><polygon class="cls-108" points="146.05 111.17 99.22 152.24 98.12 150.98 143.52 111.17 146.05 111.17"/><polygon class="cls-169" points="148.58 111.17 100.32 153.49 99.22 152.24 146.05 111.17 148.58 111.17"/><polygon class="cls-128" points="151.1 111.17 101.42 154.74 100.32 153.49 148.58 111.17 151.1 111.17"/><polygon class="cls-212" points="153.63 111.17 102.52 156 101.42 154.74 151.1 111.17 153.63 111.17"/><polygon class="cls-207" points="156.16 111.17 103.61 157.25 102.52 156 153.63 111.17 156.16 111.17"/><polygon class="cls-114" points="158.69 111.17 104.71 158.5 103.61 157.25 156.16 111.17 158.69 111.17"/><polygon class="cls-176" points="161.22 111.17 105.81 159.76 104.71 158.5 158.69 111.17 161.22 111.17"/><polygon class="cls-213" points="163.75 111.17 106.91 161.01 105.81 159.76 161.22 111.17 163.75 111.17"/><polygon class="cls-96" points="166.27 111.17 108.01 162.26 106.91 161.01 163.75 111.17 166.27 111.17"/><polygon class="cls-55" points="168.8 111.17 109.11 163.52 108.01 162.26 166.27 111.17 168.8 111.17"/><polygon class="cls-112" points="171.33 111.17 110.21 164.77 109.11 163.52 168.8 111.17 171.33 111.17"/><polygon class="cls-50" points="171.83 111.17 172.71 112.18 111.31 166.03 110.21 164.77 171.33 111.17 171.83 111.17"/><rect class="cls-90" x="101.73" y="138.9" width="81.67" height="1.67" transform="translate(-56.75 128.66) rotate(-41.25)"/><rect class="cls-115" x="102.82" y="140.15" width="81.67" height="1.67" transform="translate(-57.31 129.7) rotate(-41.25)"/><rect class="cls-155" x="103.92" y="141.4" width="81.67" height="1.67" transform="translate(-57.86 130.74) rotate(-41.25)"/><rect class="cls-194" x="105.02" y="142.66" width="81.67" height="1.67" transform="translate(-58.41 131.77) rotate(-41.25)"/><rect class="cls-73" x="106.12" y="143.91" width="81.67" height="1.67" transform="translate(-58.97 132.81) rotate(-41.25)"/><rect class="cls-49" x="107.22" y="145.16" width="81.67" height="1.67" transform="translate(-59.52 133.84) rotate(-41.25)"/><rect class="cls-26" x="108.32" y="146.42" width="81.67" height="1.67" transform="translate(-60.07 134.88) rotate(-41.25)"/><rect class="cls-121" x="109.42" y="147.67" width="81.67" height="1.67" transform="translate(-60.63 135.91) rotate(-41.25)"/><rect class="cls-125" x="110.52" y="148.92" width="81.67" height="1.67" transform="translate(-61.18 136.95) rotate(-41.25)"/><rect class="cls-173" x="111.62" y="150.18" width="81.67" height="1.67" transform="translate(-61.73 137.99) rotate(-41.25)"/><rect class="cls-170" x="112.72" y="151.43" width="81.67" height="1.67" transform="translate(-62.29 139.02) rotate(-41.25)"/><rect class="cls-18" x="113.82" y="152.68" width="81.67" height="1.67" transform="translate(-62.84 140.06) rotate(-41.25)"/><rect class="cls-83" x="114.91" y="153.94" width="81.67" height="1.67" transform="translate(-63.4 141.09) rotate(-41.25)"/><polygon class="cls-204" points="187 128.47 188.1 129.73 126.91 183.39 126.53 183.39 125.6 182.32 187 128.47"/><polygon class="cls-91" points="188.1 129.73 189.2 130.98 129.44 183.39 126.91 183.39 188.1 129.73"/><polygon class="cls-95" points="189.2 130.98 190.3 132.23 131.97 183.39 129.44 183.39 189.2 130.98"/><polygon class="cls-34" points="190.3 132.23 191.4 133.49 134.49 183.39 131.97 183.39 190.3 132.23"/><polygon class="cls-51" points="191.4 133.49 192.5 134.74 137.02 183.39 134.49 183.39 191.4 133.49"/><polygon class="cls-168" points="192.5 134.74 193.59 135.99 139.55 183.39 137.02 183.39 192.5 134.74"/><polygon class="cls-122" points="193.59 135.99 194.69 137.25 142.08 183.39 139.55 183.39 193.59 135.99"/><polygon class="cls-17" points="194.69 137.25 195.79 138.5 144.61 183.39 142.08 183.39 194.69 137.25"/><polygon class="cls-17" points="195.79 138.5 209.65 154.3 209.65 183.39 144.61 183.39 195.79 138.5"/><polygon class="cls-178" points="138.65 31.18 88.91 74.8 88.91 31.18 138.65 31.18"/><polygon class="cls-178" points="141.18 31.18 88.91 77.02 88.91 74.8 138.65 31.18 141.18 31.18"/><polygon class="cls-100" points="143.71 31.18 88.91 79.24 88.91 77.02 141.18 31.18 143.71 31.18"/><polygon class="cls-217" points="146.24 31.18 88.91 81.45 88.91 79.24 143.71 31.18 146.24 31.18"/><polygon class="cls-11" points="148.77 31.18 88.91 83.67 88.91 81.45 146.24 31.18 148.77 31.18"/><polygon class="cls-142" points="151.29 31.18 88.91 85.89 88.91 83.67 148.77 31.18 151.29 31.18"/><polygon class="cls-198" points="153.82 31.18 88.91 88.1 88.91 85.89 151.29 31.18 153.82 31.18"/><polygon class="cls-144" points="156.35 31.18 88.91 90.32 88.91 88.1 153.82 31.18 156.35 31.18"/><polygon class="cls-59" points="158.88 31.18 88.91 92.54 88.91 90.32 156.35 31.18 158.88 31.18"/><polygon class="cls-152" points="161.41 31.18 88.91 94.76 88.91 92.54 158.88 31.18 161.41 31.18"/><polygon class="cls-60" points="163.94 31.18 88.91 96.97 88.91 94.76 161.41 31.18 163.94 31.18"/><polygon class="cls-80" points="166.47 31.18 88.91 99.19 88.91 96.97 163.94 31.18 166.47 31.18"/><polygon class="cls-87" points="168.99 31.18 88.91 101.41 88.91 99.19 166.47 31.18 168.99 31.18"/><polygon class="cls-15" points="171.52 31.18 88.91 103.63 88.91 101.41 168.99 31.18 171.52 31.18"/><polygon class="cls-74" points="174.05 31.18 91.31 103.74 88.91 103.74 88.91 103.63 171.52 31.18 174.05 31.18"/><polygon class="cls-41" points="176.58 31.18 93.84 103.74 91.31 103.74 174.05 31.18 176.58 31.18"/><polygon class="cls-86" points="179.11 31.18 96.37 103.74 93.84 103.74 176.58 31.18 179.11 31.18"/><polygon class="cls-138" points="181.64 31.18 98.9 103.74 96.37 103.74 179.11 31.18 181.64 31.18"/><polygon class="cls-210" points="184.16 31.18 101.43 103.74 98.9 103.74 181.64 31.18 184.16 31.18"/><polygon class="cls-148" points="186.69 31.18 103.95 103.74 101.43 103.74 184.16 31.18 186.69 31.18"/><polygon class="cls-67" points="189.22 31.18 106.48 103.74 103.95 103.74 186.69 31.18 189.22 31.18"/><polygon class="cls-109" points="191.75 31.18 109.01 103.74 106.48 103.74 189.22 31.18 191.75 31.18"/><polygon class="cls-70" points="194.28 31.18 111.54 103.74 109.01 103.74 191.75 31.18 194.28 31.18"/><polygon class="cls-69" points="196.81 31.18 114.07 103.74 111.54 103.74 194.28 31.18 196.81 31.18"/><polygon class="cls-119" points="199.33 31.18 116.6 103.74 114.07 103.74 196.81 31.18 199.33 31.18"/><polygon class="cls-92" points="201.86 31.18 119.12 103.74 116.6 103.74 199.33 31.18 201.86 31.18"/><polygon class="cls-185" points="204.39 31.18 121.65 103.74 119.12 103.74 201.86 31.18 204.39 31.18"/><polygon class="cls-32" points="206.92 31.18 124.18 103.74 121.65 103.74 204.39 31.18 206.92 31.18"/><polygon class="cls-42" points="209.45 31.18 126.71 103.74 124.18 103.74 206.92 31.18 209.45 31.18"/><polygon class="cls-120" points="209.84 33.06 129.24 103.74 126.71 103.74 209.45 31.18 209.84 31.18 209.84 33.06"/><polygon class="cls-19" points="209.84 35.27 131.77 103.74 129.24 103.74 209.84 33.06 209.84 35.27"/><polygon class="cls-53" points="209.84 37.49 134.3 103.74 131.77 103.74 209.84 35.27 209.84 37.49"/><polygon class="cls-38" points="209.84 39.71 136.82 103.74 134.3 103.74 209.84 37.49 209.84 39.71"/><polygon class="cls-22" points="209.84 41.93 139.35 103.74 136.82 103.74 209.84 39.71 209.84 41.93"/><polygon class="cls-88" points="209.84 44.14 141.88 103.74 139.35 103.74 209.84 41.93 209.84 44.14"/><polygon class="cls-23" points="209.84 46.36 144.41 103.74 141.88 103.74 209.84 44.14 209.84 46.36"/><polygon class="cls-186" points="209.84 48.58 146.94 103.74 144.41 103.74 209.84 46.36 209.84 48.58"/><polygon class="cls-76" points="209.84 50.79 149.47 103.74 146.94 103.74 209.84 48.58 209.84 50.79"/><polygon class="cls-104" points="209.84 53.01 151.99 103.74 149.47 103.74 209.84 50.79 209.84 53.01"/><polygon class="cls-108" points="209.84 55.23 154.52 103.74 151.99 103.74 209.84 53.01 209.84 55.23"/><polygon class="cls-169" points="209.84 57.45 157.05 103.74 154.52 103.74 209.84 55.23 209.84 57.45"/><polygon class="cls-128" points="209.84 59.66 159.58 103.74 157.05 103.74 209.84 57.45 209.84 59.66"/><polygon class="cls-212" points="209.84 61.88 162.11 103.74 159.58 103.74 209.84 59.66 209.84 61.88"/><polygon class="cls-207" points="209.84 64.1 164.64 103.74 162.11 103.74 209.84 61.88 209.84 64.1"/><polygon class="cls-114" points="209.84 66.32 167.16 103.74 164.64 103.74 209.84 64.1 209.84 66.32"/><polygon class="cls-176" points="209.84 68.53 169.69 103.74 167.16 103.74 209.84 66.32 209.84 68.53"/><polygon class="cls-213" points="209.84 70.75 172.22 103.74 169.69 103.74 209.84 68.53 209.84 70.75"/><polygon class="cls-96" points="209.84 72.97 174.75 103.74 172.22 103.74 209.84 70.75 209.84 72.97"/><polygon class="cls-55" points="209.84 75.18 177.28 103.74 174.75 103.74 209.84 72.97 209.84 75.18"/><polygon class="cls-112" points="209.84 77.4 179.81 103.74 177.28 103.74 209.84 75.18 209.84 77.4"/><polygon class="cls-50" points="209.84 79.62 182.33 103.74 179.81 103.74 209.84 77.4 209.84 79.62"/><polygon class="cls-90" points="209.84 81.84 184.86 103.74 182.33 103.74 209.84 79.62 209.84 81.84"/><polygon class="cls-115" points="209.84 84.05 187.39 103.74 184.86 103.74 209.84 81.84 209.84 84.05"/><polygon class="cls-155" points="209.84 86.27 189.92 103.74 187.39 103.74 209.84 84.05 209.84 86.27"/><polygon class="cls-194" points="209.84 88.49 192.45 103.74 189.92 103.74 209.84 86.27 209.84 88.49"/><polygon class="cls-73" points="209.84 90.7 194.98 103.74 192.45 103.74 209.84 88.49 209.84 90.7"/><polygon class="cls-49" points="209.84 92.92 197.51 103.74 194.98 103.74 209.84 90.7 209.84 92.92"/><polygon class="cls-26" points="209.84 95.14 200.03 103.74 197.51 103.74 209.84 92.92 209.84 95.14"/><polygon class="cls-121" points="209.84 97.36 202.56 103.74 200.03 103.74 209.84 95.14 209.84 97.36"/><polygon class="cls-125" points="209.84 99.57 205.09 103.74 202.56 103.74 209.84 97.36 209.84 99.57"/><polygon class="cls-173" points="209.84 101.79 207.62 103.74 205.09 103.74 209.84 99.57 209.84 101.79"/><polygon class="cls-170" points="207.62 103.74 209.84 101.79 209.84 103.74 207.62 103.74"/><polygon class="cls-210" points="176.72 37.72 176.59 37.82 176.59 37.72 176.72 37.72"/><polygon class="cls-148" points="179.25 37.72 176.59 40.04 176.59 37.82 176.72 37.72 179.25 37.72"/><polygon class="cls-67" points="181.77 37.72 176.59 42.26 176.59 40.04 179.25 37.72 181.77 37.72"/><polygon class="cls-109" points="184.3 37.72 176.59 44.48 176.59 42.26 181.77 37.72 184.3 37.72"/><polygon class="cls-70" points="186.83 37.72 176.59 46.69 176.59 44.48 184.3 37.72 186.83 37.72"/><polygon class="cls-69" points="189.36 37.72 176.59 48.91 176.59 46.69 186.83 37.72 189.36 37.72"/><polygon class="cls-119" points="191.89 37.72 176.59 51.13 176.59 48.91 189.36 37.72 191.89 37.72"/><polygon class="cls-92" points="194.42 37.72 176.59 53.34 176.59 51.13 191.89 37.72 194.42 37.72"/><polygon class="cls-185" points="196.94 37.72 176.59 55.56 176.59 53.34 194.42 37.72 196.94 37.72"/><polygon class="cls-32" points="199.47 37.72 176.59 57.78 176.59 55.56 196.94 37.72 199.47 37.72"/><polygon class="cls-42" points="202 37.72 176.59 60 176.59 57.78 199.47 37.72 202 37.72"/><polygon class="cls-120" points="204.53 37.72 176.59 62.21 176.59 60 202 37.72 204.53 37.72"/><polygon class="cls-19" points="207.06 37.72 176.59 64.43 176.59 62.21 204.53 37.72 207.06 37.72"/><polygon class="cls-53" points="209.59 37.72 176.59 66.65 176.59 64.43 207.06 37.72 209.59 37.72"/><polygon class="cls-38" points="212.11 37.72 176.59 68.86 176.59 66.65 209.59 37.72 212.11 37.72"/><polygon class="cls-22" points="214.64 37.72 176.59 71.08 176.59 68.86 212.11 37.72 214.64 37.72"/><polygon class="cls-88" points="217.17 37.72 176.59 73.3 176.59 71.08 214.64 37.72 217.17 37.72"/><polygon class="cls-23" points="219.7 37.72 176.59 75.52 176.59 73.3 217.17 37.72 219.7 37.72"/><polygon class="cls-186" points="222.23 37.72 176.59 77.73 176.59 75.52 219.7 37.72 222.23 37.72"/><polygon class="cls-76" points="223.16 37.72 223.85 38.51 176.59 79.95 176.59 77.73 222.23 37.72 223.16 37.72"/><polygon class="cls-104" points="223.85 38.51 224.95 39.76 176.59 82.17 176.59 79.95 223.85 38.51"/><polygon class="cls-108" points="224.95 39.76 226.05 41.02 176.59 84.39 176.59 82.17 224.95 39.76"/><polygon class="cls-169" points="226.05 41.02 227.15 42.27 176.59 86.6 176.59 84.39 226.05 41.02"/><polygon class="cls-128" points="227.15 42.27 228.25 43.52 176.59 88.82 176.59 86.6 227.15 42.27"/><polygon class="cls-212" points="228.25 43.52 229.35 44.78 176.59 91.04 176.59 88.82 228.25 43.52"/><polygon class="cls-207" points="229.35 44.78 230.45 46.03 176.59 93.25 176.59 91.04 229.35 44.78"/><polygon class="cls-114" points="230.45 46.03 231.55 47.28 176.59 95.47 176.59 93.25 230.45 46.03"/><polygon class="cls-176" points="231.55 47.28 232.64 48.54 176.59 97.69 176.59 95.47 231.55 47.28"/><polygon class="cls-213" points="232.64 48.54 233.74 49.79 176.59 99.91 176.59 97.69 232.64 48.54"/><polygon class="cls-96" points="233.74 49.79 234.84 51.04 176.59 102.12 176.59 99.91 233.74 49.79"/><polygon class="cls-55" points="234.84 51.04 235.94 52.3 176.59 104.34 176.59 102.12 234.84 51.04"/><polygon class="cls-112" points="235.94 52.3 237.04 53.55 176.59 106.56 176.59 104.34 235.94 52.3"/><polygon class="cls-50" points="237.04 53.55 238.14 54.8 176.59 108.77 176.59 106.56 237.04 53.55"/><polygon class="cls-90" points="238.14 54.8 239.24 56.06 176.59 110.99 176.59 108.77 238.14 54.8"/><polygon class="cls-115" points="239.24 56.06 240.34 57.31 176.59 113.21 176.59 110.99 239.24 56.06"/><polygon class="cls-155" points="240.34 57.31 241.44 58.56 176.59 115.43 176.59 113.21 240.34 57.31"/><polygon class="cls-194" points="241.44 58.56 242.54 59.82 176.59 117.64 176.59 115.43 241.44 58.56"/><polygon class="cls-73" points="242.54 59.82 243.64 61.07 176.59 119.86 176.59 117.64 242.54 59.82"/><polygon class="cls-49" points="243.64 61.07 244.73 62.32 176.59 122.08 176.59 119.86 243.64 61.07"/><polygon class="cls-26" points="244.73 62.32 245.83 63.58 176.59 124.3 176.59 122.08 244.73 62.32"/><polygon class="cls-121" points="245.83 63.58 246.93 64.83 176.59 126.51 176.59 124.3 245.83 63.58"/><polygon class="cls-125" points="246.93 64.83 248.03 66.08 176.59 128.73 176.59 126.51 246.93 64.83"/><polygon class="cls-173" points="248.03 66.08 249.13 67.34 176.59 130.95 176.59 128.73 248.03 66.08"/><polygon class="cls-170" points="249.13 67.34 250.23 68.59 176.59 133.16 176.59 130.95 249.13 67.34"/><polygon class="cls-18" points="250.23 68.59 251.33 69.84 177.02 135.01 176.59 134.52 176.59 133.16 250.23 68.59"/><rect class="cls-83" x="165.31" y="102.22" width="98.83" height="1.67" transform="translate(-14.66 167.14) rotate(-41.25)"/><rect class="cls-204" x="166.41" y="103.47" width="98.83" height="1.67" transform="translate(-15.22 168.18) rotate(-41.25)"/><rect class="cls-91" x="167.51" y="104.73" width="98.83" height="1.67" transform="translate(-15.77 169.22) rotate(-41.25)"/><rect class="cls-95" x="168.6" y="105.98" width="98.83" height="1.67" transform="translate(-16.32 170.25) rotate(-41.25)"/><rect class="cls-34" x="169.7" y="107.23" width="98.83" height="1.67" transform="translate(-16.88 171.29) rotate(-41.25)"/><rect class="cls-51" x="170.8" y="108.49" width="98.83" height="1.67" transform="translate(-17.43 172.32) rotate(-41.25)"/><rect class="cls-168" x="171.9" y="109.74" width="98.83" height="1.67" transform="translate(-17.98 173.36) rotate(-41.25)"/><polygon class="cls-122" points="259.02 78.62 260.01 79.75 260.01 79.97 185.81 145.03 184.71 143.78 259.02 78.62"/><polygon class="cls-17" points="260.01 82.18 186.91 146.29 185.81 145.03 260.01 79.97 260.01 82.18"/><polygon class="cls-17" points="213.86 177.02 186.91 146.29 260.01 82.18 260.01 177.02 213.86 177.02"/><polygon class="cls-178" points="147.13 23.75 76.99 85.26 76.99 23.75 147.13 23.75"/><polygon class="cls-178" points="149.66 23.75 76.99 87.48 76.99 85.26 147.13 23.75 149.66 23.75"/><polygon class="cls-100" points="152.19 23.75 76.99 89.7 76.99 87.48 149.66 23.75 152.19 23.75"/><polygon class="cls-217" points="154.71 23.75 76.99 91.91 76.99 89.7 152.19 23.75 154.71 23.75"/><polygon class="cls-11" points="157.24 23.75 76.99 94.13 76.99 91.91 154.71 23.75 157.24 23.75"/><polygon class="cls-142" points="159.77 23.75 76.99 96.35 76.99 94.13 157.24 23.75 159.77 23.75"/><polygon class="cls-198" points="162.3 23.75 76.99 98.56 76.99 96.35 159.77 23.75 162.3 23.75"/><polygon class="cls-144" points="164.83 23.75 76.99 100.78 76.99 98.56 162.3 23.75 164.83 23.75"/><polygon class="cls-59" points="167.36 23.75 76.99 103 76.99 100.78 164.83 23.75 167.36 23.75"/><polygon class="cls-152" points="169.88 23.75 76.99 105.22 76.99 103 167.36 23.75 169.88 23.75"/><polygon class="cls-60" points="172.41 23.75 76.99 107.43 76.99 105.22 169.88 23.75 172.41 23.75"/><polygon class="cls-80" points="174.94 23.75 76.99 109.65 76.99 107.43 172.41 23.75 174.94 23.75"/><polygon class="cls-87" points="177.47 23.75 76.99 111.87 76.99 109.65 174.94 23.75 177.47 23.75"/><polygon class="cls-15" points="180 23.75 76.99 114.08 76.99 111.87 177.47 23.75 180 23.75"/><polygon class="cls-74" points="182.53 23.75 76.99 116.3 76.99 114.08 180 23.75 182.53 23.75"/><polygon class="cls-41" points="185.05 23.75 76.99 118.52 76.99 116.3 182.53 23.75 185.05 23.75"/><polygon class="cls-86" points="187.58 23.75 76.99 120.74 76.99 118.52 185.05 23.75 187.58 23.75"/><polygon class="cls-138" points="190.11 23.75 76.99 122.95 76.99 120.74 187.58 23.75 190.11 23.75"/><polygon class="cls-210" points="192.64 23.75 76.99 125.17 76.99 122.95 190.11 23.75 192.64 23.75"/><polygon class="cls-148" points="195.17 23.75 76.99 127.39 76.99 125.17 192.64 23.75 195.17 23.75"/><polygon class="cls-67" points="197.7 23.75 76.99 129.61 76.99 127.39 195.17 23.75 197.7 23.75"/><polygon class="cls-109" points="200.22 23.75 76.99 131.82 76.99 129.61 197.7 23.75 200.22 23.75"/><polygon class="cls-70" points="202.75 23.75 76.99 134.04 76.99 131.82 200.22 23.75 202.75 23.75"/><polygon class="cls-69" points="205.28 23.75 76.99 136.26 76.99 134.04 202.75 23.75 205.28 23.75"/><polygon class="cls-119" points="207.81 23.75 76.99 138.47 76.99 136.26 205.28 23.75 207.81 23.75"/><polygon class="cls-92" points="210.34 23.75 77.72 140.05 76.99 139.22 76.99 138.47 207.81 23.75 210.34 23.75"/><polygon class="cls-185" points="212.87 23.75 78.82 141.3 77.72 140.05 210.34 23.75 212.87 23.75"/><polygon class="cls-32" points="215.4 23.75 79.92 142.56 78.82 141.3 212.87 23.75 215.4 23.75"/><polygon class="cls-42" points="217.92 23.75 81.01 143.81 79.92 142.56 215.4 23.75 217.92 23.75"/><polygon class="cls-120" points="220.45 23.75 82.11 145.06 81.01 143.81 217.92 23.75 220.45 23.75"/><polygon class="cls-19" points="222.98 23.75 83.21 146.32 82.11 145.06 220.45 23.75 222.98 23.75"/><polygon class="cls-53" points="223.34 23.75 224.28 24.83 84.31 147.57 83.21 146.32 222.98 23.75 223.34 23.75"/><rect class="cls-38" x="61.76" y="85.99" width="186.17" height="1.67" transform="translate(-18.82 123.64) rotate(-41.25)"/><rect class="cls-22" x="62.86" y="87.25" width="186.17" height="1.67" transform="translate(-19.38 124.68) rotate(-41.25)"/><rect class="cls-88" x="63.96" y="88.5" width="186.17" height="1.67" transform="translate(-19.93 125.71) rotate(-41.25)"/><rect class="cls-23" x="65.06" y="89.75" width="186.17" height="1.67" transform="translate(-20.48 126.75) rotate(-41.25)"/><rect class="cls-186" x="66.16" y="91.01" width="186.17" height="1.67" transform="translate(-21.04 127.78) rotate(-41.25)"/><rect class="cls-76" x="67.26" y="92.26" width="186.17" height="1.67" transform="translate(-21.59 128.82) rotate(-41.25)"/><rect class="cls-104" x="68.36" y="93.51" width="186.17" height="1.67" transform="translate(-22.14 129.85) rotate(-41.25)"/><rect class="cls-108" x="69.46" y="94.77" width="186.17" height="1.67" transform="translate(-22.7 130.89) rotate(-41.25)"/><rect class="cls-169" x="70.56" y="96.02" width="186.17" height="1.67" transform="translate(-23.25 131.92) rotate(-41.25)"/><rect class="cls-128" x="71.66" y="97.27" width="186.17" height="1.67" transform="translate(-23.81 132.96) rotate(-41.25)"/><rect class="cls-212" x="72.76" y="98.53" width="186.17" height="1.67" transform="translate(-24.36 134) rotate(-41.25)"/><rect class="cls-207" x="73.85" y="99.78" width="186.17" height="1.67" transform="translate(-24.91 135.03) rotate(-41.25)"/><rect class="cls-114" x="74.95" y="101.03" width="186.17" height="1.67" transform="translate(-25.47 136.07) rotate(-41.25)"/><rect class="cls-176" x="76.05" y="102.29" width="186.17" height="1.67" transform="translate(-26.02 137.1) rotate(-41.25)"/><rect class="cls-213" x="77.15" y="103.54" width="186.17" height="1.67" transform="translate(-26.57 138.14) rotate(-41.25)"/><rect class="cls-96" x="78.25" y="104.79" width="186.17" height="1.67" transform="translate(-27.13 139.17) rotate(-41.25)"/><rect class="cls-55" x="79.35" y="106.05" width="186.17" height="1.67" transform="translate(-27.68 140.21) rotate(-41.25)"/><rect class="cls-112" x="80.45" y="107.3" width="186.17" height="1.67" transform="translate(-28.23 141.25) rotate(-41.25)"/><rect class="cls-50" x="81.55" y="108.55" width="186.17" height="1.67" transform="translate(-28.79 142.28) rotate(-41.25)"/><rect class="cls-90" x="82.65" y="109.81" width="186.17" height="1.67" transform="translate(-29.34 143.32) rotate(-41.25)"/><rect class="cls-115" x="83.75" y="111.06" width="186.17" height="1.67" transform="translate(-29.9 144.35) rotate(-41.25)"/><rect class="cls-155" x="84.85" y="112.31" width="186.17" height="1.67" transform="translate(-30.45 145.39) rotate(-41.25)"/><rect class="cls-194" x="85.94" y="113.57" width="186.17" height="1.67" transform="translate(-31 146.42) rotate(-41.25)"/><rect class="cls-73" x="87.04" y="114.82" width="186.17" height="1.67" transform="translate(-31.56 147.46) rotate(-41.25)"/><rect class="cls-49" x="88.14" y="116.07" width="186.17" height="1.67" transform="translate(-32.11 148.5) rotate(-41.25)"/><rect class="cls-26" x="89.24" y="117.33" width="186.17" height="1.67" transform="translate(-32.66 149.53) rotate(-41.25)"/><rect class="cls-121" x="90.34" y="118.58" width="186.17" height="1.67" transform="translate(-33.22 150.57) rotate(-41.25)"/><rect class="cls-125" x="91.44" y="119.83" width="186.17" height="1.67" transform="translate(-33.77 151.6) rotate(-41.25)"/><rect class="cls-173" x="92.54" y="121.09" width="186.17" height="1.67" transform="translate(-34.32 152.64) rotate(-41.25)"/><rect class="cls-170" x="93.64" y="122.34" width="186.17" height="1.67" transform="translate(-34.88 153.67) rotate(-41.25)"/><rect class="cls-18" x="94.74" y="123.59" width="186.17" height="1.67" transform="translate(-35.43 154.71) rotate(-41.25)"/><rect class="cls-83" x="95.84" y="124.85" width="186.17" height="1.67" transform="translate(-35.99 155.75) rotate(-41.25)"/><rect class="cls-204" x="96.94" y="126.1" width="186.17" height="1.67" transform="translate(-36.54 156.78) rotate(-41.25)"/><rect class="cls-91" x="98.03" y="127.35" width="186.17" height="1.67" transform="translate(-37.09 157.82) rotate(-41.25)"/><polygon class="cls-95" points="261.65 67.44 262.75 68.7 123.49 190.82 122.24 190.82 121.68 190.19 261.65 67.44"/><polygon class="cls-34" points="262.75 68.7 263.85 69.95 126.02 190.82 123.49 190.82 262.75 68.7"/><polygon class="cls-51" points="263.85 69.95 264.95 71.2 128.55 190.82 126.02 190.82 263.85 69.95"/><polygon class="cls-168" points="264.95 71.2 266.05 72.46 131.08 190.82 128.55 190.82 264.95 71.2"/><polygon class="cls-122" points="266.05 72.46 267.15 73.71 133.6 190.82 131.08 190.82 266.05 72.46"/><polygon class="cls-17" points="267.15 73.71 268.25 74.96 136.13 190.82 133.6 190.82 267.15 73.71"/><polygon class="cls-17" points="268.25 74.96 268.6 75.37 268.6 190.82 136.13 190.82 268.25 74.96"/></g><g class="cls-98"><polygon class="cls-162" points="241.17 183.79 288.8 138.66 300.94 151.48 300.94 183.79 241.17 183.79"/><polygon class="cls-162" points="239.68 183.79 288.1 137.92 288.8 138.66 241.17 183.79 239.68 183.79"/><polygon class="cls-132" points="238.2 183.79 287.39 137.18 288.1 137.92 239.68 183.79 238.2 183.79"/><polygon class="cls-165" points="236.71 183.79 286.69 136.44 287.39 137.18 238.2 183.79 236.71 183.79"/><polygon class="cls-189" points="235.22 183.79 285.99 135.69 286.69 136.44 236.71 183.79 235.22 183.79"/><polygon class="cls-27" points="233.74 183.79 285.28 134.95 285.99 135.69 235.22 183.79 233.74 183.79"/><polygon class="cls-63" points="232.25 183.79 284.58 134.21 285.28 134.95 233.74 183.79 232.25 183.79"/><polygon class="cls-111" points="230.77 183.79 283.88 133.47 284.58 134.21 232.25 183.79 230.77 183.79"/><polygon class="cls-113" points="229.28 183.79 283.17 132.73 283.88 133.47 230.77 183.79 229.28 183.79"/><polygon class="cls-62" points="227.79 183.79 282.47 131.98 283.17 132.73 229.28 183.79 227.79 183.79"/><polygon class="cls-85" points="226.31 183.79 281.77 131.24 282.47 131.98 227.79 183.79 226.31 183.79"/><polygon class="cls-56" points="224.82 183.79 281.06 130.5 281.77 131.24 226.31 183.79 224.82 183.79"/><polygon class="cls-29" points="223.34 183.79 280.36 129.76 281.06 130.5 224.82 183.79 223.34 183.79"/><polygon class="cls-25" points="221.85 183.79 279.66 129.02 280.36 129.76 223.34 183.79 221.85 183.79"/><polygon class="cls-145" points="220.36 183.79 278.96 128.27 279.66 129.02 221.85 183.79 220.36 183.79"/><polygon class="cls-146" points="218.88 183.79 278.25 127.53 278.96 128.27 220.36 183.79 218.88 183.79"/><polygon class="cls-130" points="217.81 183.79 217.61 183.59 277.55 126.79 278.25 127.53 218.88 183.79 217.81 183.79"/><rect class="cls-65" x="205.94" y="154.31" width="82.57" height="1.02" transform="translate(-38.72 212.49) rotate(-43.46)"/><rect class="cls-177" x="205.24" y="153.56" width="82.57" height="1.02" transform="translate(-38.4 211.8) rotate(-43.46)"/><rect class="cls-131" x="204.54" y="152.82" width="82.57" height="1.02" transform="translate(-38.08 211.12) rotate(-43.46)"/><rect class="cls-39" x="203.83" y="152.08" width="82.57" height="1.02" transform="translate(-37.76 210.43) rotate(-43.46)"/><rect class="cls-166" x="203.13" y="151.34" width="82.57" height="1.02" transform="translate(-37.44 209.74) rotate(-43.46)"/><rect class="cls-192" x="202.43" y="150.6" width="82.57" height="1.02" transform="translate(-37.13 209.05) rotate(-43.46)"/><rect class="cls-137" x="201.72" y="149.85" width="82.57" height="1.02" transform="translate(-36.81 208.37) rotate(-43.46)"/><rect class="cls-28" x="201.02" y="149.11" width="82.57" height="1.02" transform="translate(-36.49 207.68) rotate(-43.46)"/><rect class="cls-102" x="200.32" y="148.37" width="82.57" height="1.02" transform="translate(-36.17 206.99) rotate(-43.46)"/><rect class="cls-133" x="199.62" y="147.63" width="82.57" height="1.02" transform="translate(-35.86 206.31) rotate(-43.46)"/><rect class="cls-199" x="198.91" y="146.89" width="82.57" height="1.02" transform="translate(-35.54 205.62) rotate(-43.46)"/><rect class="cls-163" x="198.21" y="146.14" width="82.57" height="1.02" transform="translate(-35.22 204.93) rotate(-43.46)"/><rect class="cls-24" x="197.51" y="145.4" width="82.57" height="1.02" transform="translate(-34.9 204.25) rotate(-43.46)"/><rect class="cls-174" x="196.8" y="144.66" width="82.57" height="1.02" transform="translate(-34.59 203.56) rotate(-43.46)"/><rect class="cls-171" x="196.1" y="143.92" width="82.57" height="1.02" transform="translate(-34.27 202.87) rotate(-43.46)"/><rect class="cls-46" x="195.4" y="143.18" width="82.57" height="1.02" transform="translate(-33.95 202.18) rotate(-43.46)"/><rect class="cls-190" x="194.69" y="142.43" width="82.57" height="1.02" transform="translate(-33.63 201.5) rotate(-43.46)"/><rect class="cls-45" x="193.99" y="141.69" width="82.57" height="1.02" transform="translate(-33.32 200.81) rotate(-43.46)"/><rect class="cls-197" x="193.29" y="140.95" width="82.57" height="1.02" transform="translate(-33 200.12) rotate(-43.46)"/><rect class="cls-124" x="192.58" y="140.21" width="82.57" height="1.02" transform="translate(-32.68 199.44) rotate(-43.46)"/><polygon class="cls-208" points="203.55 168.75 202.85 168 262.39 111.58 263.14 111.58 263.49 111.95 203.55 168.75"/><polygon class="cls-147" points="202.85 168 202.14 167.26 260.91 111.58 262.39 111.58 202.85 168"/><polygon class="cls-156" points="202.14 167.26 201.44 166.52 259.42 111.58 260.91 111.58 202.14 167.26"/><polygon class="cls-110" points="201.44 166.52 200.74 165.78 257.93 111.58 259.42 111.58 201.44 166.52"/><polygon class="cls-105" points="200.74 165.78 200.04 165.04 256.45 111.58 257.93 111.58 200.74 165.78"/><polygon class="cls-3" points="200.04 165.04 199.33 164.29 254.96 111.58 256.45 111.58 200.04 165.04"/><polygon class="cls-118" points="199.33 164.29 198.63 163.55 253.48 111.58 254.96 111.58 199.33 164.29"/><polygon class="cls-181" points="198.63 163.55 197.93 162.81 251.99 111.58 253.48 111.58 198.63 163.55"/><polygon class="cls-5" points="197.93 162.81 197.22 162.07 250.5 111.58 251.99 111.58 197.93 162.81"/><polygon class="cls-187" points="197.22 162.07 196.52 161.33 249.02 111.58 250.5 111.58 197.22 162.07"/><polygon class="cls-84" points="196.52 161.33 195.82 160.58 247.53 111.58 249.02 111.58 196.52 161.33"/><polygon class="cls-183" points="195.82 160.58 195.11 159.84 246.05 111.58 247.53 111.58 195.82 160.58"/><polygon class="cls-136" points="195.11 159.84 194.41 159.1 244.56 111.58 246.05 111.58 195.11 159.84"/><polygon class="cls-215" points="194.41 159.1 193.71 158.36 243.07 111.58 244.56 111.58 194.41 159.1"/><polygon class="cls-151" points="193.71 158.36 193 157.62 241.59 111.58 243.07 111.58 193.71 158.36"/><polygon class="cls-43" points="193 157.62 192.3 156.87 240.1 111.58 241.59 111.58 193 157.62"/><polygon class="cls-58" points="192.3 156.87 191.6 156.13 238.61 111.58 240.1 111.58 192.3 156.87"/><polygon class="cls-201" points="191.6 156.13 190.9 155.39 237.13 111.58 238.61 111.58 191.6 156.13"/><polygon class="cls-218" points="190.9 155.39 190.19 154.65 235.64 111.58 237.13 111.58 190.9 155.39"/><polygon class="cls-135" points="190.19 154.65 189.49 153.91 234.16 111.58 235.64 111.58 190.19 154.65"/><polygon class="cls-214" points="189.49 153.91 188.79 153.16 232.67 111.58 234.16 111.58 189.49 153.91"/><polygon class="cls-31" points="188.79 153.16 188.08 152.42 231.18 111.58 232.67 111.58 188.79 153.16"/><polygon class="cls-216" points="188.08 152.42 187.38 151.68 229.7 111.58 231.18 111.58 188.08 152.42"/><polygon class="cls-7" points="187.38 151.68 186.68 150.94 228.21 111.58 229.7 111.58 187.38 151.68"/><polygon class="cls-179" points="186.68 150.94 185.97 150.2 226.73 111.58 228.21 111.58 186.68 150.94"/><polygon class="cls-101" points="185.97 150.2 185.27 149.45 225.24 111.58 226.73 111.58 185.97 150.2"/><polygon class="cls-141" points="185.27 149.45 184.57 148.71 223.75 111.58 225.24 111.58 185.27 149.45"/><polygon class="cls-33" points="184.57 148.71 183.86 147.97 222.27 111.58 223.75 111.58 184.57 148.71"/><polygon class="cls-36" points="183.86 147.97 183.16 147.23 220.78 111.58 222.27 111.58 183.86 147.97"/><polygon class="cls-143" points="183.16 147.23 182.46 146.49 219.3 111.58 220.78 111.58 183.16 147.23"/><polygon class="cls-13" points="182.46 146.49 181.76 145.75 217.81 111.58 219.3 111.58 182.46 146.49"/><polygon class="cls-64" points="181.76 145.75 181.05 145 216.32 111.58 217.81 111.58 181.76 145.75"/><polygon class="cls-75" points="181.05 145 180.4 144.32 180.4 144.21 214.84 111.58 216.32 111.58 181.05 145"/><polygon class="cls-172" points="180.4 142.8 213.35 111.58 214.84 111.58 180.4 144.21 180.4 142.8"/><polygon class="cls-6" points="180.4 141.4 211.87 111.58 213.35 111.58 180.4 142.8 180.4 141.4"/><polygon class="cls-195" points="180.4 139.99 210.38 111.58 211.87 111.58 180.4 141.4 180.4 139.99"/><polygon class="cls-12" points="180.4 138.58 208.89 111.58 210.38 111.58 180.4 139.99 180.4 138.58"/><polygon class="cls-1" points="180.4 137.17 207.41 111.58 208.89 111.58 180.4 138.58 180.4 137.17"/><polygon class="cls-37" points="180.4 135.76 205.92 111.58 207.41 111.58 180.4 137.17 180.4 135.76"/><polygon class="cls-205" points="180.4 134.35 204.44 111.58 205.92 111.58 180.4 135.76 180.4 134.35"/><polygon class="cls-140" points="180.4 132.95 202.95 111.58 204.44 111.58 180.4 134.35 180.4 132.95"/><polygon class="cls-16" points="180.4 131.54 201.46 111.58 202.95 111.58 180.4 132.95 180.4 131.54"/><polygon class="cls-164" points="180.4 130.13 199.98 111.58 201.46 111.58 180.4 131.54 180.4 130.13"/><polygon class="cls-57" points="180.4 128.72 198.49 111.58 199.98 111.58 180.4 130.13 180.4 128.72"/><polygon class="cls-9" points="180.4 127.31 197 111.58 198.49 111.58 180.4 128.72 180.4 127.31"/><polygon class="cls-129" points="180.4 125.91 195.52 111.58 197 111.58 180.4 127.31 180.4 125.91"/><polygon class="cls-61" points="180.4 124.5 194.03 111.58 195.52 111.58 180.4 125.91 180.4 124.5"/><polygon class="cls-4" points="180.4 123.09 192.55 111.58 194.03 111.58 180.4 124.5 180.4 123.09"/><polygon class="cls-79" points="180.4 121.68 191.06 111.58 192.55 111.58 180.4 123.09 180.4 121.68"/><polygon class="cls-107" points="180.4 120.27 189.57 111.58 191.06 111.58 180.4 121.68 180.4 120.27"/><polygon class="cls-14" points="180.4 118.86 188.09 111.58 189.57 111.58 180.4 120.27 180.4 118.86"/><polygon class="cls-117" points="180.4 117.46 186.6 111.58 188.09 111.58 180.4 118.86 180.4 117.46"/><polygon class="cls-40" points="180.4 116.05 185.12 111.58 186.6 111.58 180.4 117.46 180.4 116.05"/><polygon class="cls-157" points="180.4 114.64 183.63 111.58 185.12 111.58 180.4 116.05 180.4 114.64"/><polygon class="cls-150" points="180.4 113.23 182.14 111.58 183.63 111.58 180.4 114.64 180.4 113.23"/><polygon class="cls-10" points="180.4 111.82 180.66 111.58 182.14 111.58 180.4 113.23 180.4 111.82"/><polygon class="cls-47" points="180.66 111.58 180.4 111.82 180.4 111.58 180.66 111.58"/><polygon class="cls-65" points="299.96 104.15 301.14 103.03 301.14 104.15 299.96 104.15"/><polygon class="cls-177" points="298.47 104.15 301.14 101.62 301.14 103.03 299.96 104.15 298.47 104.15"/><polygon class="cls-131" points="296.98 104.15 301.14 100.22 301.14 101.62 298.47 104.15 296.98 104.15"/><polygon class="cls-39" points="295.5 104.15 301.14 98.81 301.14 100.22 296.98 104.15 295.5 104.15"/><polygon class="cls-166" points="294.01 104.15 301.14 97.4 301.14 98.81 295.5 104.15 294.01 104.15"/><polygon class="cls-192" points="292.53 104.15 301.14 95.99 301.14 97.4 294.01 104.15 292.53 104.15"/><polygon class="cls-137" points="291.04 104.15 301.14 94.58 301.14 95.99 292.53 104.15 291.04 104.15"/><polygon class="cls-28" points="289.55 104.15 301.14 93.17 301.14 94.58 291.04 104.15 289.55 104.15"/><polygon class="cls-102" points="288.07 104.15 301.14 91.77 301.14 93.17 289.55 104.15 288.07 104.15"/><polygon class="cls-133" points="286.58 104.15 301.14 90.36 301.14 91.77 288.07 104.15 286.58 104.15"/><polygon class="cls-199" points="285.1 104.15 301.14 88.95 301.14 90.36 286.58 104.15 285.1 104.15"/><polygon class="cls-163" points="283.61 104.15 301.14 87.54 301.14 88.95 285.1 104.15 283.61 104.15"/><polygon class="cls-24" points="282.12 104.15 301.14 86.13 301.14 87.54 283.61 104.15 282.12 104.15"/><polygon class="cls-174" points="280.64 104.15 301.14 84.73 301.14 86.13 282.12 104.15 280.64 104.15"/><polygon class="cls-171" points="279.15 104.15 301.14 83.32 301.14 84.73 280.64 104.15 279.15 104.15"/><polygon class="cls-46" points="277.67 104.15 301.14 81.91 301.14 83.32 279.15 104.15 277.67 104.15"/><polygon class="cls-190" points="276.18 104.15 301.14 80.5 301.14 81.91 277.67 104.15 276.18 104.15"/><polygon class="cls-45" points="274.69 104.15 301.14 79.09 301.14 80.5 276.18 104.15 274.69 104.15"/><polygon class="cls-197" points="273.21 104.15 301.14 77.68 301.14 79.09 274.69 104.15 273.21 104.15"/><polygon class="cls-124" points="271.72 104.15 301.14 76.28 301.14 77.68 273.21 104.15 271.72 104.15"/><polygon class="cls-208" points="270.24 104.15 301.14 74.87 301.14 76.28 271.72 104.15 270.24 104.15"/><polygon class="cls-147" points="268.75 104.15 301.14 73.46 301.14 74.87 270.24 104.15 268.75 104.15"/><polygon class="cls-156" points="267.26 104.15 301.14 72.05 301.14 73.46 268.75 104.15 267.26 104.15"/><polygon class="cls-110" points="265.78 104.15 301.14 70.64 301.14 72.05 267.26 104.15 265.78 104.15"/><polygon class="cls-105" points="264.29 104.15 301.14 69.24 301.14 70.64 265.78 104.15 264.29 104.15"/><polygon class="cls-3" points="262.81 104.15 301.14 67.83 301.14 69.24 264.29 104.15 262.81 104.15"/><polygon class="cls-118" points="261.32 104.15 301.14 66.42 301.14 67.83 262.81 104.15 261.32 104.15"/><polygon class="cls-181" points="259.83 104.15 301.14 65.01 301.14 66.42 261.32 104.15 259.83 104.15"/><polygon class="cls-5" points="258.35 104.15 301.14 63.6 301.14 65.01 259.83 104.15 258.35 104.15"/><polygon class="cls-187" points="256.86 104.15 301.14 62.19 301.14 63.6 258.35 104.15 256.86 104.15"/><polygon class="cls-84" points="255.37 104.15 301.14 60.79 301.14 62.19 256.86 104.15 255.37 104.15"/><polygon class="cls-183" points="253.89 104.15 301.14 59.38 301.14 60.79 255.37 104.15 253.89 104.15"/><polygon class="cls-136" points="252.4 104.15 301.14 57.97 301.14 59.38 253.89 104.15 252.4 104.15"/><polygon class="cls-215" points="250.92 104.15 301.14 56.56 301.14 57.97 252.4 104.15 250.92 104.15"/><polygon class="cls-151" points="249.43 104.15 301.14 55.15 301.14 56.56 250.92 104.15 249.43 104.15"/><polygon class="cls-43" points="247.94 104.15 301.14 53.75 301.14 55.15 249.43 104.15 247.94 104.15"/><polygon class="cls-58" points="246.46 104.15 301.14 52.34 301.14 53.75 247.94 104.15 246.46 104.15"/><polygon class="cls-201" points="244.97 104.15 301.14 50.93 301.14 52.34 246.46 104.15 244.97 104.15"/><polygon class="cls-218" points="243.49 104.15 301.14 49.52 301.14 50.93 244.97 104.15 243.49 104.15"/><polygon class="cls-135" points="242 104.15 301.14 48.11 301.14 49.52 243.49 104.15 242 104.15"/><polygon class="cls-214" points="240.51 104.15 301.14 46.7 301.14 48.11 242 104.15 240.51 104.15"/><polygon class="cls-31" points="239.03 104.15 301.14 45.3 301.14 46.7 240.51 104.15 239.03 104.15"/><polygon class="cls-216" points="237.54 104.15 301.14 43.89 301.14 45.3 239.03 104.15 237.54 104.15"/><polygon class="cls-7" points="236.06 104.15 301.14 42.48 301.14 43.89 237.54 104.15 236.06 104.15"/><polygon class="cls-179" points="234.57 104.15 301.14 41.07 301.14 42.48 236.06 104.15 234.57 104.15"/><polygon class="cls-101" points="233.08 104.15 301.14 39.66 301.14 41.07 234.57 104.15 233.08 104.15"/><polygon class="cls-141" points="231.6 104.15 301.14 38.26 301.14 39.66 233.08 104.15 231.6 104.15"/><polygon class="cls-33" points="230.11 104.15 301.14 36.85 301.14 38.26 231.6 104.15 230.11 104.15"/><polygon class="cls-36" points="228.63 104.15 301.14 35.44 301.14 36.85 230.11 104.15 228.63 104.15"/><polygon class="cls-143" points="227.14 104.15 301.14 34.03 301.14 35.44 228.63 104.15 227.14 104.15"/><polygon class="cls-13" points="225.65 104.15 301.14 32.62 301.14 34.03 227.14 104.15 225.65 104.15"/><polygon class="cls-64" points="224.17 104.15 300.74 31.59 301.14 31.59 301.14 32.62 225.65 104.15 224.17 104.15"/><polygon class="cls-75" points="222.68 104.15 299.25 31.59 300.74 31.59 224.17 104.15 222.68 104.15"/><polygon class="cls-172" points="221.2 104.15 297.76 31.59 299.25 31.59 222.68 104.15 221.2 104.15"/><polygon class="cls-6" points="219.71 104.15 296.28 31.59 297.76 31.59 221.2 104.15 219.71 104.15"/><polygon class="cls-195" points="218.22 104.15 294.79 31.59 296.28 31.59 219.71 104.15 218.22 104.15"/><polygon class="cls-12" points="216.74 104.15 293.31 31.59 294.79 31.59 218.22 104.15 216.74 104.15"/><polygon class="cls-1" points="215.25 104.15 291.82 31.59 293.31 31.59 216.74 104.15 215.25 104.15"/><polygon class="cls-37" points="213.76 104.15 290.33 31.59 291.82 31.59 215.25 104.15 213.76 104.15"/><polygon class="cls-205" points="212.28 104.15 288.85 31.59 290.33 31.59 213.76 104.15 212.28 104.15"/><polygon class="cls-140" points="210.79 104.15 287.36 31.59 288.85 31.59 212.28 104.15 210.79 104.15"/><polygon class="cls-16" points="209.31 104.15 285.88 31.59 287.36 31.59 210.79 104.15 209.31 104.15"/><polygon class="cls-164" points="207.82 104.15 284.39 31.59 285.88 31.59 209.31 104.15 207.82 104.15"/><polygon class="cls-57" points="206.33 104.15 282.9 31.59 284.39 31.59 207.82 104.15 206.33 104.15"/><polygon class="cls-9" points="204.85 104.15 281.42 31.59 282.9 31.59 206.33 104.15 204.85 104.15"/><polygon class="cls-129" points="203.36 104.15 279.93 31.59 281.42 31.59 204.85 104.15 203.36 104.15"/><polygon class="cls-61" points="201.88 104.15 278.44 31.59 279.93 31.59 203.36 104.15 201.88 104.15"/><polygon class="cls-4" points="200.39 104.15 276.96 31.59 278.44 31.59 201.88 104.15 200.39 104.15"/><polygon class="cls-79" points="198.9 104.15 275.47 31.59 276.96 31.59 200.39 104.15 198.9 104.15"/><polygon class="cls-107" points="197.42 104.15 273.99 31.59 275.47 31.59 198.9 104.15 197.42 104.15"/><polygon class="cls-14" points="195.93 104.15 272.5 31.59 273.99 31.59 197.42 104.15 195.93 104.15"/><polygon class="cls-117" points="194.45 104.15 271.01 31.59 272.5 31.59 195.93 104.15 194.45 104.15"/><polygon class="cls-40" points="192.96 104.15 269.53 31.59 271.01 31.59 194.45 104.15 192.96 104.15"/><polygon class="cls-157" points="191.47 104.15 268.04 31.59 269.53 31.59 192.96 104.15 191.47 104.15"/><polygon class="cls-150" points="189.99 104.15 266.56 31.59 268.04 31.59 191.47 104.15 189.99 104.15"/><polygon class="cls-10" points="188.5 104.15 265.07 31.59 266.56 31.59 189.99 104.15 188.5 104.15"/><polygon class="cls-47" points="187.02 104.15 263.58 31.59 265.07 31.59 188.5 104.15 187.02 104.15"/><polygon class="cls-184" points="185.53 104.15 262.1 31.59 263.58 31.59 187.02 104.15 185.53 104.15"/><polygon class="cls-78" points="184.04 104.15 260.61 31.59 262.1 31.59 185.53 104.15 184.04 104.15"/><polygon class="cls-154" points="182.56 104.15 259.13 31.59 260.61 31.59 184.04 104.15 182.56 104.15"/><polygon class="cls-81" points="181.07 104.15 257.64 31.59 259.13 31.59 182.56 104.15 181.07 104.15"/><polygon class="cls-71" points="180.21 103.56 256.15 31.59 257.64 31.59 181.07 104.15 180.21 104.15 180.21 103.56"/><polygon class="cls-139" points="180.21 102.15 254.67 31.59 256.15 31.59 180.21 103.56 180.21 102.15"/><polygon class="cls-188" points="180.21 100.74 253.18 31.59 254.67 31.59 180.21 102.15 180.21 100.74"/><polygon class="cls-180" points="180.21 99.33 251.7 31.59 253.18 31.59 180.21 100.74 180.21 99.33"/><polygon class="cls-2" points="180.21 97.93 250.21 31.59 251.7 31.59 180.21 99.33 180.21 97.93"/><polygon class="cls-127" points="180.21 96.52 248.72 31.59 250.21 31.59 180.21 97.93 180.21 96.52"/><polygon class="cls-153" points="180.21 95.11 247.24 31.59 248.72 31.59 180.21 96.52 180.21 95.11"/><polygon class="cls-209" points="180.21 93.7 245.75 31.59 247.24 31.59 180.21 95.11 180.21 93.7"/><polygon class="cls-68" points="180.21 92.29 244.27 31.59 245.75 31.59 180.21 93.7 180.21 92.29"/><polygon class="cls-44" points="180.21 90.88 242.78 31.59 244.27 31.59 180.21 92.29 180.21 90.88"/><polygon class="cls-202" points="180.21 89.48 241.29 31.59 242.78 31.59 180.21 90.88 180.21 89.48"/><polygon class="cls-94" points="180.21 88.07 239.81 31.59 241.29 31.59 180.21 89.48 180.21 88.07"/><polygon class="cls-93" points="180.21 86.66 238.32 31.59 239.81 31.59 180.21 88.07 180.21 86.66"/><polygon class="cls-99" points="180.21 85.25 236.83 31.59 238.32 31.59 180.21 86.66 180.21 85.25"/><polygon class="cls-97" points="180.21 83.84 235.35 31.59 236.83 31.59 180.21 85.25 180.21 83.84"/><polygon class="cls-196" points="180.21 82.44 233.86 31.59 235.35 31.59 180.21 83.84 180.21 82.44"/><polygon class="cls-193" points="180.21 81.03 232.38 31.59 233.86 31.59 180.21 82.44 180.21 81.03"/><polygon class="cls-175" points="180.21 79.62 230.89 31.59 232.38 31.59 180.21 81.03 180.21 79.62"/><polygon class="cls-182" points="180.21 78.21 229.4 31.59 230.89 31.59 180.21 79.62 180.21 78.21"/><polygon class="cls-191" points="180.21 76.8 227.92 31.59 229.4 31.59 180.21 78.21 180.21 76.8"/><polygon class="cls-77" points="180.21 75.39 226.43 31.59 227.92 31.59 180.21 76.8 180.21 75.39"/><polygon class="cls-20" points="180.21 73.99 224.95 31.59 226.43 31.59 180.21 75.39 180.21 73.99"/><polygon class="cls-54" points="180.21 72.58 223.46 31.59 224.95 31.59 180.21 73.99 180.21 72.58"/><polygon class="cls-219" points="180.21 71.17 221.97 31.59 223.46 31.59 180.21 72.58 180.21 71.17"/><polygon class="cls-82" points="180.21 69.76 220.49 31.59 221.97 31.59 180.21 71.17 180.21 69.76"/><polygon class="cls-134" points="180.21 68.35 219 31.59 220.49 31.59 180.21 69.76 180.21 68.35"/><polygon class="cls-89" points="180.21 66.95 217.52 31.59 219 31.59 180.21 68.35 180.21 66.95"/><polygon class="cls-200" points="180.21 65.54 216.03 31.59 217.52 31.59 180.21 66.95 180.21 65.54"/><polygon class="cls-167" points="180.21 64.13 214.54 31.59 216.03 31.59 180.21 65.54 180.21 64.13"/><polygon class="cls-158" points="180.21 62.72 213.06 31.59 214.54 31.59 180.21 64.13 180.21 62.72"/><polygon class="cls-123" points="180.21 61.31 211.57 31.59 213.06 31.59 180.21 62.72 180.21 61.31"/><polygon class="cls-52" points="180.21 59.9 210.09 31.59 211.57 31.59 180.21 61.31 180.21 59.9"/><polygon class="cls-160" points="180.21 58.5 208.6 31.59 210.09 31.59 180.21 59.9 180.21 58.5"/><polygon class="cls-203" points="180.21 57.09 207.11 31.59 208.6 31.59 180.21 58.5 180.21 57.09"/><polygon class="cls-206" points="180.21 55.68 205.63 31.59 207.11 31.59 180.21 57.09 180.21 55.68"/><polygon class="cls-126" points="180.21 54.27 204.14 31.59 205.63 31.59 180.21 55.68 180.21 54.27"/><polygon class="cls-159" points="180.21 52.86 202.65 31.59 204.14 31.59 180.21 54.27 180.21 52.86"/><polygon class="cls-161" points="180.21 51.46 201.17 31.59 202.65 31.59 180.21 52.86 180.21 51.46"/><polygon class="cls-35" points="180.21 50.05 199.68 31.59 201.17 31.59 180.21 51.46 180.21 50.05"/><polygon class="cls-21" points="180.21 48.64 198.2 31.59 199.68 31.59 180.21 50.05 180.21 48.64"/><polygon class="cls-116" points="180.21 47.23 196.71 31.59 198.2 31.59 180.21 48.64 180.21 47.23"/><polygon class="cls-30" points="180.21 45.82 195.22 31.59 196.71 31.59 180.21 47.23 180.21 45.82"/><polygon class="cls-66" points="180.21 44.41 193.74 31.59 195.22 31.59 180.21 45.82 180.21 44.41"/><polygon class="cls-106" points="180.21 43.01 192.25 31.59 193.74 31.59 180.21 44.41 180.21 43.01"/><polygon class="cls-8" points="180.21 41.6 190.77 31.59 192.25 31.59 180.21 43.01 180.21 41.6"/><polygon class="cls-149" points="180.21 40.19 189.28 31.59 190.77 31.59 180.21 41.6 180.21 40.19"/><polygon class="cls-48" points="180.21 38.78 187.79 31.59 189.28 31.59 180.21 40.19 180.21 38.78"/><polygon class="cls-103" points="180.21 37.37 186.31 31.59 187.79 31.59 180.21 38.78 180.21 37.37"/><polygon class="cls-103" points="186.31 31.59 180.21 37.37 180.21 31.59 186.31 31.59"/><polygon class="cls-162" points="305.06 177.43 278.01 148.88 351.31 79.43 351.31 177.43 305.06 177.43"/><polygon class="cls-162" points="278.01 148.88 277.31 148.14 351.31 78.02 351.31 79.43 278.01 148.88"/><polygon class="cls-132" points="277.31 148.14 276.6 147.4 351.15 76.76 351.31 76.92 351.31 78.02 277.31 148.14"/><rect class="cls-165" x="262.18" y="111.2" width="102.7" height="1.02" transform="translate(9.11 246.27) rotate(-43.46)"/><rect class="cls-189" x="261.47" y="110.45" width="102.7" height="1.02" transform="translate(9.43 245.59) rotate(-43.46)"/><rect class="cls-27" x="260.77" y="109.71" width="102.7" height="1.02" transform="translate(9.74 244.9) rotate(-43.46)"/><rect class="cls-63" x="260.07" y="108.97" width="102.7" height="1.02" transform="translate(10.06 244.21) rotate(-43.46)"/><rect class="cls-111" x="259.36" y="108.23" width="102.7" height="1.02" transform="translate(10.38 243.53) rotate(-43.46)"/><rect class="cls-113" x="258.66" y="107.49" width="102.7" height="1.02" transform="translate(10.7 242.84) rotate(-43.46)"/><rect class="cls-62" x="257.96" y="106.75" width="102.7" height="1.02" transform="translate(11.02 242.15) rotate(-43.46)"/><rect class="cls-85" x="257.26" y="106" width="102.7" height="1.02" transform="translate(11.33 241.47) rotate(-43.46)"/><rect class="cls-56" x="256.55" y="105.26" width="102.7" height="1.02" transform="translate(11.65 240.78) rotate(-43.46)"/><rect class="cls-29" x="255.85" y="104.52" width="102.7" height="1.02" transform="translate(11.97 240.09) rotate(-43.46)"/><rect class="cls-25" x="255.15" y="103.78" width="102.7" height="1.02" transform="translate(12.29 239.4) rotate(-43.46)"/><rect class="cls-145" x="254.44" y="103.04" width="102.7" height="1.02" transform="translate(12.6 238.72) rotate(-43.46)"/><polygon class="cls-146" points="268.17 138.5 267.89 138.2 267.89 137.35 342.01 67.11 342.72 67.86 268.17 138.5"/><polygon class="cls-130" points="267.89 135.95 341.31 66.37 342.01 67.11 267.89 137.35 267.89 135.95"/><polygon class="cls-65" points="267.89 134.54 340.61 65.63 341.31 66.37 267.89 135.95 267.89 134.54"/><polygon class="cls-177" points="267.89 133.13 339.9 64.89 340.61 65.63 267.89 134.54 267.89 133.13"/><polygon class="cls-131" points="267.89 131.72 339.2 64.15 339.9 64.89 267.89 133.13 267.89 131.72"/><polygon class="cls-39" points="267.89 130.31 338.5 63.4 339.2 64.15 267.89 131.72 267.89 130.31"/><polygon class="cls-166" points="267.89 128.9 337.79 62.66 338.5 63.4 267.89 130.31 267.89 128.9"/><polygon class="cls-192" points="267.89 127.5 337.09 61.92 337.79 62.66 267.89 128.9 267.89 127.5"/><polygon class="cls-137" points="267.89 126.09 336.39 61.18 337.09 61.92 267.89 127.5 267.89 126.09"/><polygon class="cls-28" points="267.89 124.68 335.69 60.44 336.39 61.18 267.89 126.09 267.89 124.68"/><polygon class="cls-102" points="267.89 123.27 334.98 59.69 335.69 60.44 267.89 124.68 267.89 123.27"/><polygon class="cls-133" points="267.89 121.86 334.28 58.95 334.98 59.69 267.89 123.27 267.89 121.86"/><polygon class="cls-199" points="267.89 120.46 333.58 58.21 334.28 58.95 267.89 121.86 267.89 120.46"/><polygon class="cls-163" points="267.89 119.05 332.87 57.47 333.58 58.21 267.89 120.46 267.89 119.05"/><polygon class="cls-24" points="267.89 117.64 332.17 56.73 332.87 57.47 267.89 119.05 267.89 117.64"/><polygon class="cls-174" points="267.89 116.23 331.47 55.98 332.17 56.73 267.89 117.64 267.89 116.23"/><polygon class="cls-171" points="267.89 114.82 330.76 55.24 331.47 55.98 267.89 116.23 267.89 114.82"/><polygon class="cls-46" points="267.89 113.42 330.06 54.5 330.76 55.24 267.89 114.82 267.89 113.42"/><polygon class="cls-190" points="267.89 112.01 329.36 53.76 330.06 54.5 267.89 113.42 267.89 112.01"/><polygon class="cls-45" points="267.89 110.6 328.65 53.02 329.36 53.76 267.89 112.01 267.89 110.6"/><polygon class="cls-197" points="267.89 109.19 327.95 52.27 328.65 53.02 267.89 110.6 267.89 109.19"/><polygon class="cls-124" points="267.89 107.78 327.25 51.53 327.95 52.27 267.89 109.19 267.89 107.78"/><polygon class="cls-208" points="267.89 106.37 326.55 50.79 327.25 51.53 267.89 107.78 267.89 106.37"/><polygon class="cls-147" points="267.89 104.97 325.84 50.05 326.55 50.79 267.89 106.37 267.89 104.97"/><polygon class="cls-156" points="267.89 103.56 325.14 49.31 325.84 50.05 267.89 104.97 267.89 103.56"/><polygon class="cls-110" points="267.89 102.15 324.44 48.56 325.14 49.31 267.89 103.56 267.89 102.15"/><polygon class="cls-105" points="267.89 100.74 323.73 47.82 324.44 48.56 267.89 102.15 267.89 100.74"/><polygon class="cls-3" points="267.89 99.33 323.03 47.08 323.73 47.82 267.89 100.74 267.89 99.33"/><polygon class="cls-118" points="267.89 97.93 322.33 46.34 323.03 47.08 267.89 99.33 267.89 97.93"/><polygon class="cls-181" points="267.89 96.52 321.62 45.6 322.33 46.34 267.89 97.93 267.89 96.52"/><polygon class="cls-5" points="267.89 95.11 320.92 44.85 321.62 45.6 267.89 96.52 267.89 95.11"/><polygon class="cls-187" points="267.89 93.7 320.22 44.11 320.92 44.85 267.89 95.11 267.89 93.7"/><polygon class="cls-84" points="267.89 92.29 319.51 43.37 320.22 44.11 267.89 93.7 267.89 92.29"/><polygon class="cls-183" points="267.89 90.88 318.81 42.63 319.51 43.37 267.89 92.29 267.89 90.88"/><polygon class="cls-136" points="267.89 89.48 318.11 41.89 318.81 42.63 267.89 90.88 267.89 89.48"/><polygon class="cls-215" points="267.89 88.07 317.41 41.14 318.11 41.89 267.89 89.48 267.89 88.07"/><polygon class="cls-151" points="267.89 86.66 316.7 40.4 317.41 41.14 267.89 88.07 267.89 86.66"/><polygon class="cls-43" points="267.89 85.25 316 39.66 316.7 40.4 267.89 86.66 267.89 85.25"/><polygon class="cls-58" points="267.89 83.84 315.3 38.92 316 39.66 267.89 85.25 267.89 83.84"/><polygon class="cls-201" points="267.89 82.44 314.59 38.18 315.3 38.92 267.89 83.84 267.89 82.44"/><polygon class="cls-218" points="267.89 81.03 313.16 38.12 314.54 38.12 314.59 38.18 267.89 82.44 267.89 81.03"/><polygon class="cls-135" points="267.89 79.62 311.68 38.12 313.16 38.12 267.89 81.03 267.89 79.62"/><polygon class="cls-214" points="267.89 78.21 310.19 38.12 311.68 38.12 267.89 79.62 267.89 78.21"/><polygon class="cls-31" points="267.89 76.8 308.71 38.12 310.19 38.12 267.89 78.21 267.89 76.8"/><polygon class="cls-216" points="267.89 75.39 307.22 38.12 308.71 38.12 267.89 76.8 267.89 75.39"/><polygon class="cls-7" points="267.89 73.99 305.73 38.12 307.22 38.12 267.89 75.39 267.89 73.99"/><polygon class="cls-179" points="267.89 72.58 304.25 38.12 305.73 38.12 267.89 73.99 267.89 72.58"/><polygon class="cls-101" points="267.89 71.17 302.76 38.12 304.25 38.12 267.89 72.58 267.89 71.17"/><polygon class="cls-141" points="267.89 69.76 301.27 38.12 302.76 38.12 267.89 71.17 267.89 69.76"/><polygon class="cls-33" points="267.89 68.35 299.79 38.12 301.27 38.12 267.89 69.76 267.89 68.35"/><polygon class="cls-36" points="267.89 66.95 298.3 38.12 299.79 38.12 267.89 68.35 267.89 66.95"/><polygon class="cls-143" points="267.89 65.54 296.82 38.12 298.3 38.12 267.89 66.95 267.89 65.54"/><polygon class="cls-13" points="267.89 64.13 295.33 38.12 296.82 38.12 267.89 65.54 267.89 64.13"/><polygon class="cls-64" points="267.89 62.72 293.84 38.12 295.33 38.12 267.89 64.13 267.89 62.72"/><polygon class="cls-75" points="267.89 61.31 292.36 38.12 293.84 38.12 267.89 62.72 267.89 61.31"/><polygon class="cls-172" points="267.89 59.9 290.87 38.12 292.36 38.12 267.89 61.31 267.89 59.9"/><polygon class="cls-6" points="267.89 58.5 289.39 38.12 290.87 38.12 267.89 59.9 267.89 58.5"/><polygon class="cls-195" points="267.89 57.09 287.9 38.12 289.39 38.12 267.89 58.5 267.89 57.09"/><polygon class="cls-12" points="267.89 55.68 286.41 38.12 287.9 38.12 267.89 57.09 267.89 55.68"/><polygon class="cls-1" points="267.89 54.27 284.93 38.12 286.41 38.12 267.89 55.68 267.89 54.27"/><polygon class="cls-37" points="267.89 52.86 283.44 38.12 284.93 38.12 267.89 54.27 267.89 52.86"/><polygon class="cls-205" points="267.89 51.46 281.96 38.12 283.44 38.12 267.89 52.86 267.89 51.46"/><polygon class="cls-140" points="267.89 50.05 280.47 38.12 281.96 38.12 267.89 51.46 267.89 50.05"/><polygon class="cls-16" points="267.89 48.64 278.98 38.12 280.47 38.12 267.89 50.05 267.89 48.64"/><polygon class="cls-164" points="267.89 47.23 277.5 38.12 278.98 38.12 267.89 48.64 267.89 47.23"/><polygon class="cls-57" points="267.89 45.82 276.01 38.12 277.5 38.12 267.89 47.23 267.89 45.82"/><polygon class="cls-9" points="267.89 44.41 274.53 38.12 276.01 38.12 267.89 45.82 267.89 44.41"/><polygon class="cls-129" points="267.89 43.01 273.04 38.12 274.53 38.12 267.89 44.41 267.89 43.01"/><polygon class="cls-61" points="267.89 41.6 271.55 38.12 273.04 38.12 267.89 43.01 267.89 41.6"/><polygon class="cls-4" points="267.89 40.19 270.07 38.12 271.55 38.12 267.89 41.6 267.89 40.19"/><polygon class="cls-79" points="267.89 38.78 268.58 38.12 270.07 38.12 267.89 40.19 267.89 38.78"/><polygon class="cls-107" points="268.58 38.12 267.89 38.78 267.89 38.12 268.58 38.12"/><polygon class="cls-162" points="233.33 191.23 359.59 71.58 359.9 71.91 359.9 191.23 233.33 191.23"/><polygon class="cls-162" points="231.84 191.23 358.88 70.84 359.59 71.58 233.33 191.23 231.84 191.23"/><polygon class="cls-132" points="230.35 191.23 358.18 70.1 358.88 70.84 231.84 191.23 230.35 191.23"/><polygon class="cls-165" points="228.87 191.23 357.48 69.36 358.18 70.1 230.35 191.23 228.87 191.23"/><polygon class="cls-189" points="227.38 191.23 356.77 68.62 357.48 69.36 228.87 191.23 227.38 191.23"/><polygon class="cls-27" points="225.89 191.23 356.07 67.87 356.77 68.62 227.38 191.23 225.89 191.23"/><polygon class="cls-63" points="224.41 191.23 355.37 67.13 356.07 67.87 225.89 191.23 224.41 191.23"/><polygon class="cls-111" points="222.92 191.23 354.66 66.39 355.37 67.13 224.41 191.23 222.92 191.23"/><polygon class="cls-113" points="221.44 191.23 353.96 65.65 354.66 66.39 222.92 191.23 221.44 191.23"/><polygon class="cls-62" points="219.95 191.23 353.26 64.91 353.96 65.65 221.44 191.23 219.95 191.23"/><polygon class="cls-85" points="218.46 191.23 352.56 64.16 353.26 64.91 219.95 191.23 218.46 191.23"/><polygon class="cls-56" points="216.98 191.23 351.85 63.42 352.56 64.16 218.46 191.23 216.98 191.23"/><polygon class="cls-29" points="215.49 191.23 351.15 62.68 351.85 63.42 216.98 191.23 215.49 191.23"/><polygon class="cls-25" points="214.01 191.23 350.45 61.94 351.15 62.68 215.49 191.23 214.01 191.23"/><polygon class="cls-145" points="213.51 191.23 213.04 190.73 349.74 61.2 350.45 61.94 214.01 191.23 213.51 191.23"/><rect class="cls-146" x="186.88" y="125.08" width="188.32" height="1.02" transform="translate(-9.35 227.74) rotate(-43.46)"/><rect class="cls-130" x="186.18" y="124.34" width="188.32" height="1.02" transform="translate(-9.03 227.05) rotate(-43.46)"/><rect class="cls-65" x="185.47" y="123.6" width="188.32" height="1.02" transform="translate(-8.71 226.36) rotate(-43.46)"/><rect class="cls-177" x="184.77" y="122.86" width="188.32" height="1.02" transform="translate(-8.39 225.67) rotate(-43.46)"/><rect class="cls-131" x="184.07" y="122.11" width="188.32" height="1.02" transform="translate(-8.07 224.99) rotate(-43.46)"/><rect class="cls-39" x="183.36" y="121.37" width="188.32" height="1.02" transform="translate(-7.76 224.3) rotate(-43.46)"/><rect class="cls-166" x="182.66" y="120.63" width="188.32" height="1.02" transform="translate(-7.44 223.61) rotate(-43.46)"/><rect class="cls-192" x="181.96" y="119.89" width="188.32" height="1.02" transform="translate(-7.12 222.93) rotate(-43.46)"/><rect class="cls-137" x="181.26" y="119.15" width="188.32" height="1.02" transform="translate(-6.8 222.24) rotate(-43.46)"/><rect class="cls-28" x="180.55" y="118.4" width="188.32" height="1.02" transform="translate(-6.49 221.55) rotate(-43.46)"/><rect class="cls-102" x="179.85" y="117.66" width="188.32" height="1.02" transform="translate(-6.17 220.87) rotate(-43.46)"/><rect class="cls-133" x="179.15" y="116.92" width="188.32" height="1.02" transform="translate(-5.85 220.18) rotate(-43.46)"/><rect class="cls-199" x="178.44" y="116.18" width="188.32" height="1.02" transform="translate(-5.53 219.49) rotate(-43.46)"/><rect class="cls-163" x="177.74" y="115.44" width="188.32" height="1.02" transform="translate(-5.22 218.81) rotate(-43.46)"/><rect class="cls-24" x="177.04" y="114.69" width="188.32" height="1.02" transform="translate(-4.9 218.12) rotate(-43.46)"/><rect class="cls-174" x="176.33" y="113.95" width="188.32" height="1.02" transform="translate(-4.58 217.43) rotate(-43.46)"/><rect class="cls-171" x="175.63" y="113.21" width="188.32" height="1.02" transform="translate(-4.26 216.74) rotate(-43.46)"/><rect class="cls-46" x="174.93" y="112.47" width="188.32" height="1.02" transform="translate(-3.95 216.06) rotate(-43.46)"/><rect class="cls-190" x="174.22" y="111.73" width="188.32" height="1.02" transform="translate(-3.63 215.37) rotate(-43.46)"/><rect class="cls-45" x="173.52" y="110.98" width="188.32" height="1.02" transform="translate(-3.31 214.68) rotate(-43.46)"/><rect class="cls-197" x="172.82" y="110.24" width="188.32" height="1.02" transform="translate(-2.99 214) rotate(-43.46)"/><rect class="cls-124" x="172.12" y="109.5" width="188.32" height="1.02" transform="translate(-2.68 213.31) rotate(-43.46)"/><rect class="cls-208" x="171.41" y="108.76" width="188.32" height="1.02" transform="translate(-2.36 212.62) rotate(-43.46)"/><rect class="cls-147" x="170.71" y="108.02" width="188.32" height="1.02" transform="translate(-2.04 211.94) rotate(-43.46)"/><rect class="cls-156" x="170.01" y="107.27" width="188.32" height="1.02" transform="translate(-1.72 211.25) rotate(-43.46)"/><rect class="cls-110" x="169.3" y="106.53" width="188.32" height="1.02" transform="translate(-1.4 210.56) rotate(-43.46)"/><rect class="cls-105" x="168.6" y="105.79" width="188.32" height="1.02" transform="translate(-1.09 209.87) rotate(-43.46)"/><rect class="cls-3" x="167.9" y="105.05" width="188.32" height="1.02" transform="translate(-.77 209.19) rotate(-43.46)"/><rect class="cls-118" x="167.19" y="104.31" width="188.32" height="1.02" transform="translate(-.45 208.5) rotate(-43.46)"/><rect class="cls-181" x="166.49" y="103.56" width="188.32" height="1.02" transform="translate(-.13 207.81) rotate(-43.46)"/><rect class="cls-5" x="165.79" y="102.82" width="188.32" height="1.02" transform="translate(.18 207.13) rotate(-43.46)"/><rect class="cls-187" x="165.08" y="102.08" width="188.32" height="1.02" transform="translate(.5 206.44) rotate(-43.46)"/><rect class="cls-84" x="164.38" y="101.34" width="188.32" height="1.02" transform="translate(.82 205.75) rotate(-43.46)"/><rect class="cls-183" x="163.68" y="100.6" width="188.32" height="1.02" transform="translate(1.14 205.07) rotate(-43.46)"/><rect class="cls-136" x="162.98" y="99.85" width="188.32" height="1.02" transform="translate(1.45 204.38) rotate(-43.46)"/><rect class="cls-215" x="162.27" y="99.11" width="188.32" height="1.02" transform="translate(1.77 203.69) rotate(-43.46)"/><rect class="cls-151" x="161.57" y="98.37" width="188.32" height="1.02" transform="translate(2.09 203) rotate(-43.46)"/><rect class="cls-43" x="160.87" y="97.63" width="188.32" height="1.02" transform="translate(2.41 202.32) rotate(-43.46)"/><rect class="cls-58" x="160.16" y="96.89" width="188.32" height="1.02" transform="translate(2.72 201.63) rotate(-43.46)"/><rect class="cls-201" x="159.46" y="96.14" width="188.32" height="1.02" transform="translate(3.04 200.94) rotate(-43.46)"/><rect class="cls-218" x="158.76" y="95.4" width="188.32" height="1.02" transform="translate(3.36 200.26) rotate(-43.46)"/><rect class="cls-135" x="158.05" y="94.66" width="188.32" height="1.02" transform="translate(3.68 199.57) rotate(-43.46)"/><rect class="cls-214" x="157.35" y="93.92" width="188.32" height="1.02" transform="translate(3.99 198.88) rotate(-43.46)"/><rect class="cls-31" x="156.65" y="93.18" width="188.32" height="1.02" transform="translate(4.31 198.2) rotate(-43.46)"/><rect class="cls-216" x="155.95" y="92.43" width="188.32" height="1.02" transform="translate(4.63 197.51) rotate(-43.46)"/><rect class="cls-7" x="155.24" y="91.69" width="188.32" height="1.02" transform="translate(4.95 196.82) rotate(-43.46)"/><rect class="cls-179" x="154.54" y="90.95" width="188.32" height="1.02" transform="translate(5.26 196.13) rotate(-43.46)"/><rect class="cls-101" x="153.84" y="90.21" width="188.32" height="1.02" transform="translate(5.58 195.45) rotate(-43.46)"/><rect class="cls-141" x="153.13" y="89.47" width="188.32" height="1.02" transform="translate(5.9 194.76) rotate(-43.46)"/><polygon class="cls-33" points="178.59 154.37 177.89 153.63 314.52 24.16 314.65 24.16 315.29 24.84 178.59 154.37"/><polygon class="cls-36" points="177.89 153.63 177.19 152.89 313.04 24.16 314.52 24.16 177.89 153.63"/><polygon class="cls-143" points="177.19 152.89 176.48 152.15 311.55 24.16 313.04 24.16 177.19 152.89"/><polygon class="cls-13" points="176.48 152.15 175.78 151.41 310.07 24.16 311.55 24.16 176.48 152.15"/><polygon class="cls-64" points="175.78 151.41 175.08 150.66 308.58 24.16 310.07 24.16 175.78 151.41"/><polygon class="cls-75" points="175.08 150.66 174.37 149.92 307.09 24.16 308.58 24.16 175.08 150.66"/><polygon class="cls-172" points="174.37 149.92 173.67 149.18 305.61 24.16 307.09 24.16 174.37 149.92"/><polygon class="cls-6" points="173.67 149.18 172.97 148.44 304.12 24.16 305.61 24.16 173.67 149.18"/><polygon class="cls-195" points="172.97 148.44 172.27 147.7 302.64 24.16 304.12 24.16 172.97 148.44"/><polygon class="cls-12" points="172.27 147.7 171.56 146.95 301.15 24.16 302.64 24.16 172.27 147.7"/><polygon class="cls-1" points="171.56 146.95 170.86 146.21 299.66 24.16 301.15 24.16 171.56 146.95"/><polygon class="cls-37" points="170.86 146.21 170.16 145.47 298.18 24.16 299.66 24.16 170.86 146.21"/><polygon class="cls-205" points="170.16 145.47 169.45 144.73 296.69 24.16 298.18 24.16 170.16 145.47"/><polygon class="cls-140" points="169.45 144.73 168.75 143.99 295.2 24.16 296.69 24.16 169.45 144.73"/><polygon class="cls-16" points="168.75 143.99 168.28 143.49 168.28 143.02 293.72 24.16 295.2 24.16 168.75 143.99"/><polygon class="cls-164" points="168.28 141.62 292.23 24.16 293.72 24.16 168.28 143.02 168.28 141.62"/><polygon class="cls-57" points="168.28 140.21 290.75 24.16 292.23 24.16 168.28 141.62 168.28 140.21"/><polygon class="cls-9" points="168.28 138.8 289.26 24.16 290.75 24.16 168.28 140.21 168.28 138.8"/><polygon class="cls-129" points="168.28 137.39 287.77 24.16 289.26 24.16 168.28 138.8 168.28 137.39"/><polygon class="cls-61" points="168.28 135.98 286.29 24.16 287.77 24.16 168.28 137.39 168.28 135.98"/><polygon class="cls-4" points="168.28 134.57 284.8 24.16 286.29 24.16 168.28 135.98 168.28 134.57"/><polygon class="cls-79" points="168.28 133.17 283.32 24.16 284.8 24.16 168.28 134.57 168.28 133.17"/><polygon class="cls-107" points="168.28 131.76 281.83 24.16 283.32 24.16 168.28 133.17 168.28 131.76"/><polygon class="cls-14" points="168.28 130.35 280.34 24.16 281.83 24.16 168.28 131.76 168.28 130.35"/><polygon class="cls-117" points="168.28 128.94 278.86 24.16 280.34 24.16 168.28 130.35 168.28 128.94"/><polygon class="cls-40" points="168.28 127.53 277.37 24.16 278.86 24.16 168.28 128.94 168.28 127.53"/><polygon class="cls-157" points="168.28 126.13 275.89 24.16 277.37 24.16 168.28 127.53 168.28 126.13"/><polygon class="cls-150" points="168.28 124.72 274.4 24.16 275.89 24.16 168.28 126.13 168.28 124.72"/><polygon class="cls-10" points="168.28 123.31 272.91 24.16 274.4 24.16 168.28 124.72 168.28 123.31"/><polygon class="cls-47" points="168.28 121.9 271.43 24.16 272.91 24.16 168.28 123.31 168.28 121.9"/><polygon class="cls-184" points="168.28 120.49 269.94 24.16 271.43 24.16 168.28 121.9 168.28 120.49"/><polygon class="cls-78" points="168.28 119.08 268.46 24.16 269.94 24.16 168.28 120.49 168.28 119.08"/><polygon class="cls-154" points="168.28 117.68 266.97 24.16 268.46 24.16 168.28 119.08 168.28 117.68"/><polygon class="cls-81" points="168.28 116.27 265.48 24.16 266.97 24.16 168.28 117.68 168.28 116.27"/><polygon class="cls-71" points="168.28 114.86 264 24.16 265.48 24.16 168.28 116.27 168.28 114.86"/><polygon class="cls-139" points="168.28 113.45 262.51 24.16 264 24.16 168.28 114.86 168.28 113.45"/><polygon class="cls-188" points="168.28 112.04 261.03 24.16 262.51 24.16 168.28 113.45 168.28 112.04"/><polygon class="cls-180" points="168.28 110.64 259.54 24.16 261.03 24.16 168.28 112.04 168.28 110.64"/><polygon class="cls-2" points="168.28 109.23 258.05 24.16 259.54 24.16 168.28 110.64 168.28 109.23"/><polygon class="cls-127" points="168.28 107.82 256.57 24.16 258.05 24.16 168.28 109.23 168.28 107.82"/><polygon class="cls-153" points="168.28 106.41 255.08 24.16 256.57 24.16 168.28 107.82 168.28 106.41"/><polygon class="cls-209" points="168.28 105 253.59 24.16 255.08 24.16 168.28 106.41 168.28 105"/><polygon class="cls-68" points="168.28 103.59 252.11 24.16 253.59 24.16 168.28 105 168.28 103.59"/><polygon class="cls-44" points="168.28 102.19 250.62 24.16 252.11 24.16 168.28 103.59 168.28 102.19"/><polygon class="cls-202" points="168.28 100.78 249.14 24.16 250.62 24.16 168.28 102.19 168.28 100.78"/><polygon class="cls-94" points="168.28 99.37 247.65 24.16 249.14 24.16 168.28 100.78 168.28 99.37"/><polygon class="cls-93" points="168.28 97.96 246.16 24.16 247.65 24.16 168.28 99.37 168.28 97.96"/><polygon class="cls-99" points="168.28 96.55 244.68 24.16 246.16 24.16 168.28 97.96 168.28 96.55"/><polygon class="cls-97" points="168.28 95.15 243.19 24.16 244.68 24.16 168.28 96.55 168.28 95.15"/><polygon class="cls-196" points="168.28 93.74 241.71 24.16 243.19 24.16 168.28 95.15 168.28 93.74"/><polygon class="cls-193" points="168.28 92.33 240.22 24.16 241.71 24.16 168.28 93.74 168.28 92.33"/><polygon class="cls-175" points="168.28 90.92 238.73 24.16 240.22 24.16 168.28 92.33 168.28 90.92"/><polygon class="cls-182" points="168.28 89.51 237.25 24.16 238.73 24.16 168.28 90.92 168.28 89.51"/><polygon class="cls-191" points="168.28 88.1 235.76 24.16 237.25 24.16 168.28 89.51 168.28 88.1"/><polygon class="cls-77" points="168.28 86.7 234.28 24.16 235.76 24.16 168.28 88.1 168.28 86.7"/><polygon class="cls-20" points="168.28 85.29 232.79 24.16 234.28 24.16 168.28 86.7 168.28 85.29"/><polygon class="cls-54" points="168.28 83.88 231.3 24.16 232.79 24.16 168.28 85.29 168.28 83.88"/><polygon class="cls-219" points="168.28 82.47 229.82 24.16 231.3 24.16 168.28 83.88 168.28 82.47"/><polygon class="cls-82" points="168.28 81.06 228.33 24.16 229.82 24.16 168.28 82.47 168.28 81.06"/><polygon class="cls-134" points="168.28 79.66 226.85 24.16 228.33 24.16 168.28 81.06 168.28 79.66"/><polygon class="cls-89" points="168.28 78.25 225.36 24.16 226.85 24.16 168.28 79.66 168.28 78.25"/><polygon class="cls-200" points="168.28 76.84 223.87 24.16 225.36 24.16 168.28 78.25 168.28 76.84"/><polygon class="cls-167" points="168.28 75.43 222.39 24.16 223.87 24.16 168.28 76.84 168.28 75.43"/><polygon class="cls-158" points="168.28 74.02 220.9 24.16 222.39 24.16 168.28 75.43 168.28 74.02"/><polygon class="cls-123" points="168.28 72.61 219.41 24.16 220.9 24.16 168.28 74.02 168.28 72.61"/><polygon class="cls-52" points="168.28 71.21 217.93 24.16 219.41 24.16 168.28 72.61 168.28 71.21"/><polygon class="cls-160" points="168.28 69.8 216.44 24.16 217.93 24.16 168.28 71.21 168.28 69.8"/><polygon class="cls-203" points="168.28 68.39 214.96 24.16 216.44 24.16 168.28 69.8 168.28 68.39"/><polygon class="cls-206" points="168.28 66.98 213.47 24.16 214.96 24.16 168.28 68.39 168.28 66.98"/><polygon class="cls-126" points="168.28 65.57 211.98 24.16 213.47 24.16 168.28 66.98 168.28 65.57"/><polygon class="cls-159" points="168.28 64.17 210.5 24.16 211.98 24.16 168.28 65.57 168.28 64.17"/><polygon class="cls-161" points="168.28 62.76 209.01 24.16 210.5 24.16 168.28 64.17 168.28 62.76"/><polygon class="cls-35" points="168.28 61.35 207.53 24.16 209.01 24.16 168.28 62.76 168.28 61.35"/><polygon class="cls-21" points="168.28 59.94 206.04 24.16 207.53 24.16 168.28 61.35 168.28 59.94"/><polygon class="cls-116" points="168.28 58.53 204.55 24.16 206.04 24.16 168.28 59.94 168.28 58.53"/><polygon class="cls-30" points="168.28 57.13 203.07 24.16 204.55 24.16 168.28 58.53 168.28 57.13"/><polygon class="cls-66" points="168.28 55.72 201.58 24.16 203.07 24.16 168.28 57.13 168.28 55.72"/><polygon class="cls-106" points="168.28 54.31 200.1 24.16 201.58 24.16 168.28 55.72 168.28 54.31"/><polygon class="cls-8" points="168.28 52.9 198.61 24.16 200.1 24.16 168.28 54.31 168.28 52.9"/><polygon class="cls-149" points="168.28 51.49 197.12 24.16 198.61 24.16 168.28 52.9 168.28 51.49"/><polygon class="cls-48" points="168.28 50.08 195.64 24.16 197.12 24.16 168.28 51.49 168.28 50.08"/><polygon class="cls-103" points="168.28 48.68 194.15 24.16 195.64 24.16 168.28 50.08 168.28 48.68"/><polygon class="cls-103" points="194.15 24.16 168.28 48.68 168.28 24.16 194.15 24.16"/></g></svg>