<?xml version="1.0" encoding="UTF-8"?>
<svg id="Camada_1_cópia_3" xmlns="http://www.w3.org/2000/svg" version="1.1" xmlns:xlink="http://www.w3.org/1999/xlink" viewBox="0 0 867 396.3">
  <!-- Generator: Adobe Illustrator 29.8.3, SVG Export Plug-In . SVG Version: 2.1.1 Build 3)  -->
  <defs>
    <style>
      .st0 {
        fill: url(#Gradiente_sem_nome_5);
      }

      .st1 {
        fill: #fff;
      }

      .st2 {
        fill: url(#Gradiente_sem_nome);
      }

      .st3 {
        fill: url(#Gradiente_sem_nome_6);
      }

      .st4 {
        fill: #764aed;
      }
    </style>
    <linearGradient id="Gradiente_sem_nome" data-name="Gradiente sem nome" x1="349.2" y1="179" x2="480.1" y2="29.9" gradientUnits="userSpaceOnUse">
      <stop offset="0" stop-color="#6941f9"/>
      <stop offset=".6" stop-color="#8888ed"/>
    </linearGradient>
    <linearGradient id="Gradiente_sem_nome_5" data-name="Gradiente sem nome 5" x1="490.3" y1="226.9" x2="322.8" y2="341.7" gradientTransform="translate(0 398) scale(1 -1)" gradientUnits="userSpaceOnUse">
      <stop offset=".2" stop-color="#f71414"/>
      <stop offset=".8" stop-color="orange"/>
    </linearGradient>
    <linearGradient id="Gradiente_sem_nome_6" data-name="Gradiente sem nome 6" x1="469.5" y1="129.5" x2="509.4" y2="129.5" gradientTransform="translate(0 398) scale(1 -1)" gradientUnits="userSpaceOnUse">
      <stop offset=".3" stop-color="orange"/>
      <stop offset=".8" stop-color="#f71414"/>
    </linearGradient>
  </defs>
  <path class="st2" d="M498.5,112.2l-44.3-76c-.8-1.3-2.7-2.4-4.2-2.4h-88.5c-1.5,0-3.5,1.1-4.2,2.4l-44.3,76c-.8,1.3-.8,3.5,0,4.8l44.3,76c.8,1.3,2.7,2.4,4.2,2.4h88.5c1.5,0,3.5-1.1,4.2-2.4l44.3-76c.8-1.3.8-3.5,0-4.8ZM326.2,103.9l35.3-60.5c.8-1.3,2.7-2.4,4.2-2.4h0s69.7,0,69.7,0c4.7,0,6.6,3.3,4.2,7.3l-35.6,60.5c-.8,1.3-2.7,2.4-4.2,2.4h-69.3c-4.6,0-6.5-3.3-4.2-7.3ZM435.2,188.2h-69.5c-1.5,0-3.5-1.1-4.2-2.4h0s-35.1-60.2-35.1-60.2c-2.3-4-.4-7.3,4.2-7.3h69.1c1.5,0,3.4,1.1,4.2,2.4l35.4,60.2c2.4,4,.5,7.3-4.2,7.3ZM490.2,117l-35.6,61c-2.3,4-6.1,4-8.5,0l-35.9-60.9c-.8-1.3-.8-3.5,0-4.9l36-61.1c2.3-4,6.1-3.9,8.5,0l35.5,60.9c.8,1.3.8,3.5,0,4.8h0Z"/>
  <path class="st0" d="M430,166.2c-4.7,0-8.5-2.4-10.7-6.8l-13.5-23.7-13.5,23.7c-2.2,4.4-6,6.8-10.7,6.8s-11.3-4.7-11.3-11.2.6-4.7,1.8-7.1h0c0,0,14.3-23.2,14.3-23.2h-27.8c-7.4,0-12.5-4.8-12.5-11.6s5.1-11.6,12.5-11.6h28.1c0,0-14.6-23.1-14.6-23.1h0c-1.2-2.5-1.8-4.7-1.8-7.1,0-6.5,4.8-11.2,11.3-11.2s8.5,2.4,10.7,6.9l13.5,24,13.5-24.1c2.2-4.4,6-6.8,10.7-6.8s11.3,4.7,11.3,11.2-.6,4.7-1.8,7.1h0c0,0-14.3,23.2-14.3,23.2h27.8c7.4,0,12.5,4.8,12.5,11.6s-5.1,11.6-12.5,11.6h-27.5l13.9,23.1h0c1.2,2.4,1.8,4.7,1.8,7.1,0,6.5-4.8,11.2-11.3,11.2h0Z"/>
  <path class="st1" d="M430,62c5.5,0,9.4,3.9,9.4,9.3s-.4,3.9-1.6,6.2l-16,26h31.3c6.6,0,10.6,4.2,10.6,9.7s-3.9,9.7-10.6,9.7h-30.9l15.6,26c1.2,2.3,1.6,4.3,1.6,6.2,0,5.4-3.9,9.3-9.4,9.3s-7-1.9-9-5.8l-15.2-26.7-15.2,26.7c-2,3.9-5.1,5.8-9,5.8s-9.4-3.9-9.4-9.3.4-3.9,1.6-6.2l16-25.9h-31.3c-6.6,0-10.6-4.3-10.6-9.7s3.9-9.7,10.6-9.7h31.7c0,0-16.4-25.9-16.4-25.9-1.2-2.3-1.6-4.3-1.6-6.2,0-5.4,3.9-9.3,9.4-9.3s7,1.9,9,5.8l15.2,27.1,15.2-27.1c2-3.9,5.1-5.8,9-5.8M430,58.1c-5.4,0-9.9,2.8-12.4,7.9l-11.8,21-11.8-21c-2.6-5.1-7-7.9-12.4-7.9s-13.3,5.7-13.3,13.2.6,5.3,2,7.9v.2c0,0,.2.2.2.2l12.7,20h-24.6c-8.4,0-14.5,5.8-14.5,13.6s6.1,13.6,14.5,13.6h24.3l-12.4,20.1h0c0,.1,0,.3,0,.3-1.4,2.7-2,5.2-2,7.9,0,7.5,5.7,13.2,13.3,13.2s9.8-2.8,12.4-7.9l11.8-20.7,11.8,20.7c2.6,5.1,7,7.9,12.4,7.9s13.3-5.7,13.3-13.2-.6-5.3-2-7.9h0c0-.1,0-.2,0-.2l-12.1-20.1h24c8.4,0,14.5-5.7,14.5-13.6s-6.1-13.6-14.5-13.6h-24.3s12.4-20.1,12.4-20.1h0c0-.1,0-.3,0-.3,1.4-2.7,2-5.2,2-7.9,0-7.5-5.7-13.2-13.3-13.2h0Z"/>
  <path class="st4" d="M329,328.5v-1.7h6.2v5.4c-.9.8-1.9,1.3-2.9,1.7-1,.4-2,.6-3.1.6s-2.7-.3-3.9-.9c-1.2-.6-2.1-1.5-2.6-2.6-.6-1.1-.9-2.4-.9-3.9s.3-2.7.9-3.9c.6-1.2,1.5-2.1,2.6-2.7,1.1-.6,2.4-.9,3.9-.9s2,.2,2.9.5,1.5.8,2,1.4.9,1.4,1.1,2.4l-1.7.5c-.2-.7-.5-1.3-.8-1.7s-.8-.8-1.4-1-1.3-.4-2-.4-1.6.1-2.3.4c-.6.3-1.2.6-1.6,1s-.7.9-.9,1.4c-.4.9-.6,1.9-.6,2.9s.2,2.4.7,3.2c.5.9,1.1,1.5,2,1.9.9.4,1.8.6,2.7.6s1.7-.2,2.5-.5,1.4-.7,1.8-1v-2.7h-4.3,0Z"/>
  <path class="st4" d="M339.2,334.2v-14.5h10.5v1.7h-8.6v4.4h8.1v1.7h-8.1v4.9h9v1.7h-10.9Z"/>
  <path class="st4" d="M353.3,329.6l1.8-.2c0,.7.3,1.3.6,1.8.3.5.8.8,1.5,1.1.7.3,1.4.4,2.2.4s1.4-.1,2-.3,1-.5,1.3-.9c.3-.4.4-.8.4-1.2s-.1-.8-.4-1.2-.7-.6-1.3-.9c-.4-.2-1.2-.4-2.6-.7-1.3-.3-2.3-.6-2.8-.9-.7-.4-1.2-.8-1.6-1.3-.3-.5-.5-1.1-.5-1.8s.2-1.4.6-2c.4-.6,1-1.1,1.8-1.5.8-.3,1.7-.5,2.7-.5s2,.2,2.9.5c.8.4,1.5.9,1.9,1.5s.7,1.4.7,2.3h-1.9c-.1-.8-.4-1.5-1-1.9s-1.4-.7-2.5-.7-2,.2-2.5.6-.8.9-.8,1.5.2,1,.6,1.3c.4.3,1.3.7,2.9,1s2.6.7,3.2.9c.9.4,1.5.9,1.9,1.5.4.6.6,1.3.6,2.1s-.2,1.5-.7,2.2c-.4.7-1.1,1.2-1.9,1.6-.8.4-1.8.6-2.8.6s-2.4-.2-3.3-.6-1.6-1-2.1-1.7-.8-1.6-.8-2.6h0Z"/>
  <path class="st4" d="M372.4,334.2v-12.8h-4.8v-1.7h11.6v1.7h-4.8v12.8h-1.9Z"/>
  <path class="st4" d="M380.6,334.2l5.6-14.5h2.1l6,14.5h-2.2l-1.7-4.4h-6.1l-1.6,4.4h-2,0ZM384.1,318.9c0-.7.2-1.2.6-1.6.4-.4.9-.6,1.5-.6s1,.2,1.7.5c.4.2.7.3.9.3s.4,0,.5-.2c.1-.1.2-.3.2-.7h1.3c0,.7-.2,1.3-.6,1.7-.4.4-.8.6-1.4.6s-1-.2-1.6-.5c-.4-.2-.8-.4-1-.4s-.4,0-.5.2c-.1.2-.2.4-.2.7h-1.3ZM384.8,328.3h5l-1.5-4c-.5-1.2-.8-2.2-1-3-.2.9-.5,1.8-.8,2.8l-1.6,4.2h0Z"/>
  <path class="st4" d="M396.4,327.2c0-2.4.6-4.3,2-5.6,1.3-1.4,3-2,5-2s2.5.3,3.6,1c1.1.6,1.9,1.5,2.5,2.7.6,1.1.9,2.4.9,3.9s-.3,2.8-.9,3.9c-.6,1.2-1.4,2-2.5,2.6-1.1.6-2.3.9-3.5.9s-2.6-.3-3.7-1-1.9-1.5-2.5-2.7c-.5-1.1-.8-2.3-.8-3.6h0ZM398.4,327.2c0,1.7.5,3.1,1.4,4.1.9,1,2.1,1.5,3.6,1.5s2.6-.5,3.6-1.5,1.4-2.5,1.4-4.3-.2-2.2-.6-3.1c-.4-.9-1-1.6-1.8-2-.8-.5-1.6-.7-2.6-.7-1.4,0-2.5.5-3.5,1.4-1,.9-1.5,2.5-1.5,4.7h0Z"/>
  <path class="st4" d="M420.7,334.2v-14.5h5c1.1,0,2,0,2.6.2.8.2,1.5.5,2.1,1,.8.6,1.3,1.5,1.7,2.5s.6,2.1.6,3.4-.1,2.1-.4,2.9-.6,1.5-1,2.1c-.4.5-.8,1-1.3,1.3-.5.3-1.1.6-1.7.7s-1.5.2-2.3.2h-5.3ZM422.7,332.5h3.1c1,0,1.7,0,2.3-.3s1-.4,1.3-.8c.5-.5.8-1.1,1.1-1.8.2-.8.4-1.7.4-2.8s-.2-2.7-.8-3.5-1.1-1.4-1.8-1.6c-.5-.2-1.4-.3-2.5-.3h-3.1v11Z"/>
  <path class="st4" d="M436.6,334.2v-14.5h10.5v1.7h-8.6v4.4h8.1v1.7h-8.1v4.9h9v1.7h-10.9Z"/>
  <path class="st4" d="M458.1,334.2v-14.5h2l7.7,11.3v-11.3h1.9v14.5h-2l-7.7-11.4v11.4h-1.9,0Z"/>
  <path class="st4" d="M474,334.2v-14.5h10.5v1.7h-8.6v4.4h8.1v1.7h-8.1v4.9h9v1.7h-10.9Z"/>
  <path class="st4" d="M495.5,328.5v-1.7h6.2v5.4c-1,.8-1.9,1.3-2.9,1.7-1,.4-2,.6-3.1.6s-2.7-.3-3.9-.9c-1.2-.6-2.1-1.5-2.6-2.6-.6-1.1-.9-2.4-.9-3.9s.3-2.7.9-3.9c.6-1.2,1.5-2.1,2.6-2.7,1.1-.6,2.4-.9,3.9-.9s2,.2,2.9.5,1.5.8,2,1.4.9,1.4,1.1,2.4l-1.7.5c-.2-.7-.5-1.3-.8-1.7s-.8-.8-1.4-1-1.3-.4-2-.4-1.6.1-2.3.4c-.6.3-1.2.6-1.6,1-.4.4-.7.9-.9,1.4-.4.9-.6,1.9-.6,2.9s.2,2.4.7,3.2c.5.9,1.1,1.5,2,1.9.9.4,1.8.6,2.7.6s1.7-.2,2.5-.5,1.4-.7,1.8-1v-2.7h-4.3,0Z"/>
  <path class="st4" d="M505.1,327.2c0-2.4.6-4.3,2-5.6,1.3-1.4,3-2,5-2s2.5.3,3.6,1c1.1.6,1.9,1.5,2.5,2.7.6,1.1.8,2.4.8,3.9s-.3,2.8-.9,3.9c-.6,1.2-1.4,2-2.5,2.6-1.1.6-2.3.9-3.5.9s-2.6-.3-3.7-1c-1.1-.7-1.9-1.5-2.5-2.7-.5-1.1-.8-2.3-.8-3.6h0ZM507.1,327.2c0,1.7.5,3.1,1.4,4.1.9,1,2.1,1.5,3.6,1.5s2.7-.5,3.6-1.5,1.4-2.5,1.4-4.3-.2-2.2-.6-3.1c-.4-.9-1-1.6-1.8-2-.8-.5-1.6-.7-2.6-.7-1.4,0-2.5.5-3.5,1.4-1,.9-1.5,2.5-1.5,4.7h0ZM510.9,318.9l1.3-2.8h2.3l-2.2,2.8h-1.5Z"/>
  <path class="st4" d="M533.1,329.1l1.9.5c-.4,1.6-1.1,2.8-2.2,3.6-1,.8-2.3,1.2-3.9,1.2s-2.8-.3-3.8-1-1.7-1.5-2.2-2.8-.8-2.5-.8-3.9.3-2.8.9-3.9,1.4-2,2.5-2.5,2.3-.9,3.5-.9,2.7.4,3.7,1.1c1,.7,1.7,1.8,2.1,3.1l-1.9.4c-.3-1-.8-1.8-1.5-2.3-.6-.5-1.5-.7-2.4-.7s-2.1.3-2.8.8c-.8.5-1.3,1.2-1.6,2.1s-.5,1.8-.5,2.8.2,2.3.5,3.2c.4.9.9,1.6,1.7,2.1.8.5,1.6.7,2.5.7s2-.3,2.7-.9c.8-.6,1.2-1.5,1.5-2.8h0Z"/>
  <path class="st4" d="M538.9,334.2v-14.5h1.9v14.5h-1.9Z"/>
  <path class="st4" d="M544.8,327.2c0-2.4.7-4.3,2-5.6,1.3-1.4,3-2,5-2s2.5.3,3.6,1c1.1.6,1.9,1.5,2.5,2.7.6,1.1.8,2.4.8,3.9s-.3,2.8-.9,3.9c-.6,1.2-1.4,2-2.5,2.6-1.1.6-2.3.9-3.5.9s-2.6-.3-3.7-1c-1.1-.7-1.9-1.5-2.5-2.7-.5-1.1-.8-2.3-.8-3.6h0ZM546.7,327.2c0,1.7.5,3.1,1.4,4.1.9,1,2.1,1.5,3.6,1.5s2.7-.5,3.6-1.5,1.4-2.5,1.4-4.3-.2-2.2-.6-3.1c-.4-.9-1-1.6-1.8-2-.8-.5-1.6-.7-2.6-.7-1.4,0-2.5.5-3.5,1.4-1,.9-1.5,2.5-1.5,4.7h0Z"/>
  <path class="st4" d="M561.7,329.6l1.8-.2c0,.7.3,1.3.6,1.8.3.5.8.8,1.5,1.1s1.4.4,2.2.4,1.4-.1,2-.3,1-.5,1.3-.9.4-.8.4-1.2-.1-.8-.4-1.2-.7-.6-1.3-.9c-.4-.2-1.2-.4-2.6-.7-1.3-.3-2.3-.6-2.8-.9-.7-.4-1.2-.8-1.6-1.3s-.5-1.1-.5-1.8.2-1.4.6-2c.4-.6,1-1.1,1.8-1.5.8-.3,1.7-.5,2.7-.5s2,.2,2.9.5c.8.4,1.5.9,1.9,1.5s.7,1.4.7,2.3h-1.8c0-.8-.4-1.5-1-1.9-.6-.5-1.4-.7-2.5-.7s-2,.2-2.5.6c-.5.4-.8.9-.8,1.5s.2,1,.6,1.3c.4.3,1.3.7,2.9,1,1.6.4,2.6.7,3.2.9.8.4,1.5.9,1.9,1.5.4.6.6,1.3.6,2.1s-.2,1.5-.7,2.2c-.4.7-1.1,1.2-1.9,1.6-.8.4-1.8.6-2.8.6s-2.4-.2-3.3-.6-1.6-1-2.1-1.7c-.5-.8-.8-1.6-.8-2.6Z"/>
  <path class="st4" d="M306.6,325.6c3.2-4.8,4.8-10.5,4.8-16.9v-71.6c0-.3-.3-.6-.6-.6h-16.6c-.3,0-.6.3-.6.6v8.9c0,.7-.2,1.1-.6,1.2-.4.1-.8-.1-1.1-.7l-1.4-2.3c-1.6-2.6-4.4-4.8-8.1-6.5-3.8-1.8-8-2.6-12.3-2.6s-11.5,1.6-16.5,4.7c-5,3.1-9,7.4-11.9,12.8-2.9,5.4-4.4,11.4-4.4,17.8s1.5,12.5,4.4,17.9c2.9,5.4,6.9,9.8,11.9,12.9,5,3.1,10.6,4.7,16.5,4.7s8.5-.9,12.3-2.6c3.7-1.7,6.5-3.9,8.1-6.4l1.4-2.2c.4-.6.8-.8,1.1-.7.4.1.6.5.6,1.2v13.4c0,4.9-2,9-5.8,12-3.8,3-8.3,4.4-13.4,4.4s-8.7-1-12-2.8c-3-1.7-4.9-4.1-5.6-7,0,0,0,0,0,0h-17.9c.4,3.6,1.4,6.7,2.9,9.5,1.8,3.3,3.9,5.9,6.4,7.8,2.5,1.9,5.5,3.5,8.8,4.8,3.4,1.3,6.5,2.2,9.5,2.6,3,.5,5.9.7,8.8.7,6.9,0,13.1-1.3,18.6-3.8,5.4-2.5,9.8-6.2,13-11h0ZM289.8,283.2c-3.7,4.1-9.4,6.6-15.1,6.6s-10.4-1.9-14.3-5.6c-3.9-3.7-5.8-8.4-5.8-13.9s2-10.1,5.8-13.8c3.8-3.7,8.6-5.5,14.3-5.5s12.3,2.6,15.9,7.3c.8,1,1.5,2.1,2,3.3,3.6,7.2,2.5,15.7-2.8,21.6h0Z"/>
  <path class="st4" d="M376.8,239.3c-5.4-3-11.3-4.5-17.6-4.5-10.4,0-19.3,3.5-26.4,10.5-7.1,7-10.8,15.7-10.8,25.9s1.7,13.2,5,18.9c3.3,5.7,7.9,10.2,13.6,13.4,5.7,3.2,12.1,4.9,19,4.9s16.6-2.3,22.8-6.9c5.2-3.9,8.7-9,10.3-15.1.2-.8-.4-1.6-1.2-1.6h-15.9c-.5,0-1,.3-1.2.8-.9,2.1-2.5,3.9-4.8,5.3-2.8,1.7-6.3,2.6-10.6,2.6s-9.8-1.5-13.4-4.6c-3.7-3-5.9-7.1-6.7-12.2l-.2-1.5h54.1c.6,0,1.2-.5,1.2-1.1.1-1.7.2-3.4.2-5.1,0-6.3-1.6-12.1-4.7-17.4-3.1-5.3-7.4-9.4-12.8-12.4h0ZM341.2,264.5c-.8,0-1.4-.8-1.2-1.6h0c1.4-4.5,3.6-8,6.8-10.3,3.1-2.3,7-3.4,11.4-3.4s8,1.3,11.2,3.9c3.2,2.6,5,6,5.3,10v1.4c.1,0-33.6,0-33.6,0h0Z"/>
  <path class="st4" d="M461.2,286c0-3.7-.6-6.9-1.7-9.6-1.1-2.6-2.6-4.6-4.4-6-1.9-1.4-4-2.6-6.4-3.6-2.4-1-4.9-1.6-7.4-2-2.6-.3-5.3-.7-7.8-1.1-2.5-.4-4.8-.8-6.8-1.1-2.2-.4-3.9-1.1-5.3-2.1-1.5-1.1-2.3-2.7-2.3-4.6s1.1-4.1,3.2-5.4c1.9-1.2,4.6-1.8,7.9-1.8s5.9.8,8.2,2.4c1.8,1.2,3,2.7,3.7,4.4.2.4.6.7,1.1.7h15.4c.8,0,1.4-.8,1.2-1.5-.8-3.5-2.4-6.7-4.6-9.4-2.9-3.5-6.5-6.2-10.9-7.9-4.4-1.8-9.2-2.6-14.5-2.6-8.4,0-15.2,2.1-20.2,6.2s-7.4,9-7.4,15,.6,6.3,1.7,8.7c1.1,2.4,2.6,4.3,4.3,5.6,1.9,1.4,4,2.5,6.4,3.5,2.4,1,4.9,1.7,7.4,2.1,2.6.4,5.2.9,7.7,1.4s4.8,1,6.7,1.4c2.2.5,4,1.3,5.3,2.5,1.5,1.3,2.2,2.9,2.2,4.9s-1.2,4.5-3.5,6c-2.1,1.3-5.1,2-8.9,2s-7-.9-9.7-2.7c-2.2-1.5-3.6-3.2-4.3-5.3-.2-.5-.6-.8-1.2-.8h-14.3c-.8,0-1.4.7-1.2,1.4,1.2,6.3,4.3,11.4,9.3,15.2,5.8,4.4,13.5,6.6,22.8,6.6s14.7-2.2,20-6.5c5.3-4.3,7.9-9.5,7.9-15.9h0Z"/>
  <path class="st4" d="M545.6,234.8c-4,0-7.7.9-11.2,2.6-3.4,1.7-6.1,4-8,6.9h0c-.7,1.2-2.3.7-2.3-.5v-6.3c0-.7-.5-1.2-1.2-1.2h-16.2c-.7,0-1.2.6-1.2,1.2v68.3c0,.7.5,1.2,1.2,1.2h16.2c.7,0,1.2-.5,1.2-1.2,0-11.4,0-22.9-.2-34.3,0-3.3,0-6.7,1.1-9.9,2.1-5.7,9.3-8.4,15.1-8.4s8.6,1.6,11.4,4.7c2.8,3,4.2,7.3,4.2,12.6v35.4c0,.7.5,1.2,1.2,1.2h16.2c.7,0,1.2-.5,1.2-1.2v-39c0-9.9-2.6-17.8-7.7-23.5-5.1-5.6-12.2-8.5-21.1-8.5h0Z"/>
  <path class="st3" d="M489.5,288.2c-11,0-19.9-8.9-19.9-19.7s8.9-19.7,19.9-19.7,19.9,8.8,19.9,19.7-8.9,19.7-19.9,19.7Z"/>
  <path class="st1" d="M489.5,252.3c9,0,16.3,7.3,16.3,16.2s-7.3,16.2-16.3,16.2-16.3-7.2-16.3-16.2,7.3-16.2,16.3-16.2M489.5,245.2c-13,0-23.5,10.4-23.5,23.3s10.5,23.3,23.5,23.3,23.5-10.4,23.5-23.3-10.5-23.3-23.5-23.3h0Z"/>
</svg>